M48
; DRILL file KiCad 10.0.4 date 2026-08-20T08:56:43
; FORMAT={-:-/ absolute / metric / decimal}
; #@! TF.CreationDate,2026-08-20T08:56:43-04:00
; #@! TF.GenerationSoftware,Kicad,Pcbnew,10.0.4
; #@! TF.FileFunction,MixedPlating,1,2
FMAT,2
METRIC
; #@! TA.AperFunction,Plated,PTH,ViaDrill
T1C0.300
; #@! TA.AperFunction,Plated,PTH,ComponentDrill
T2C0.750
; #@! TA.AperFunction,Plated,PTH,ComponentDrill
T3C1.000
; #@! TA.AperFunction,Plated,PTH,ComponentDrill
T4C3.000
; #@! TA.AperFunction,NonPlated,NPTH,ComponentDrill
T5C0.500
; #@! TA.AperFunction,NonPlated,NPTH,ComponentDrill
T6C0.850
; #@! TA.AperFunction,NonPlated,NPTH,ComponentDrill
T7C1.700
; #@! TA.AperFunction,NonPlated,NPTH,ComponentDrill
T8C3.200
; #@! TA.AperFunction,NonPlated,NPTH,ComponentDrill
T9C3.400
%
G90
G05
T1
X87.0Y-117.0
X105.0Y-117.0
X105.0Y-129.5
X105.0Y-134.5
X105.0Y-146.0
X105.0Y-152.0
X105.0Y-164.0
X105.0Y-169.5
X123.0Y-108.5
X123.0Y-118.5
X123.0Y-127.0
X123.0Y-135.5
X123.0Y-144.0
X123.0Y-161.0
X123.5Y-152.5
X141.0Y-118.0
X141.0Y-122.0
X141.0Y-135.5
X141.0Y-139.0
X141.0Y-152.5
X141.0Y-156.0
X159.0Y-118.5
X159.0Y-123.0
X159.0Y-135.5
X159.0Y-140.0
X159.0Y-152.5
X159.0Y-157.0
X176.5Y-157.0
X177.0Y-113.5
X177.0Y-123.0
X177.0Y-127.0
X177.0Y-140.0
X177.0Y-144.0
X177.0Y-161.0
X199.5Y-157.5
X211.5Y-115.5
X213.5Y-152.5
X241.0Y-148.5
X249.5Y-143.0
X249.5Y-153.0
X260.0Y-121.5
X260.0Y-129.5
X260.0Y-138.5
X260.0Y-146.5
X260.0Y-155.5
X260.0Y-163.5
X276.0Y-127.0
X276.0Y-144.0
X276.0Y-161.0
X278.0Y-121.0
X278.0Y-138.0
X278.0Y-155.0
X294.0Y-124.0
X294.0Y-141.0
X294.0Y-158.0
X296.0Y-116.5
X296.0Y-133.5
X296.0Y-151.0
X314.0Y-109.5
X314.0Y-118.5
X314.0Y-127.0
X314.0Y-135.5
X314.0Y-144.0
X314.0Y-152.5
X314.0Y-161.0
X332.0Y-118.5
X332.0Y-127.0
X332.0Y-135.5
X332.0Y-144.0
X332.0Y-152.5
X332.0Y-161.0
X332.0Y-169.5
X350.0Y-118.5
X350.0Y-127.0
X350.0Y-135.5
X350.0Y-144.0
X350.0Y-152.5
X350.0Y-161.0
X350.0Y-169.5
T2
X202.05Y-147.5
X202.05Y-149.5
X250.95Y-147.0
X250.95Y-149.0
T3
X201.88Y-107.047
X201.88Y-109.587
X201.88Y-112.127
X201.88Y-114.667
X201.88Y-117.207
X201.88Y-119.747
X201.88Y-122.287
X201.88Y-124.828
X201.88Y-127.367
X201.88Y-129.907
X201.88Y-132.447
X201.88Y-134.987
X201.88Y-137.528
X204.42Y-132.447
X206.96Y-132.447
X209.5Y-132.447
X217.12Y-107.047
X217.12Y-109.587
X217.12Y-112.127
X217.12Y-114.667
X217.12Y-117.207
X217.12Y-119.747
X217.12Y-122.287
X217.12Y-124.828
X217.12Y-127.367
X217.12Y-129.907
X217.12Y-132.447
X217.12Y-134.987
X217.12Y-137.528
X235.815Y-107.047
X235.815Y-109.587
X235.815Y-112.127
X235.815Y-114.667
X235.815Y-117.207
X235.815Y-119.747
X235.815Y-122.287
X235.815Y-124.828
X235.815Y-127.367
X235.815Y-129.907
X235.815Y-132.447
X235.815Y-134.987
X235.815Y-137.528
X238.355Y-132.447
X240.895Y-132.447
X243.435Y-132.447
X251.055Y-107.047
X251.055Y-109.587
X251.055Y-112.127
X251.055Y-114.667
X251.055Y-117.207
X251.055Y-119.747
X251.055Y-122.287
X251.055Y-124.828
X251.055Y-127.367
X251.055Y-129.907
X251.055Y-132.447
X251.055Y-134.987
X251.055Y-137.528
T4
X90.0Y-122.25
X90.0Y-139.25
X90.0Y-156.25
X90.0Y-173.25
X95.0Y-124.45
X95.0Y-141.45
X95.0Y-158.45
X95.0Y-175.45
X108.0Y-122.25
X108.0Y-139.25
X108.0Y-156.25
X108.0Y-173.25
X113.0Y-124.45
X113.0Y-141.45
X113.0Y-158.45
X113.0Y-175.45
X126.0Y-113.75
X126.0Y-130.75
X126.0Y-147.75
X126.0Y-164.75
X131.0Y-115.95
X131.0Y-132.95
X131.0Y-149.95
X131.0Y-166.95
X144.0Y-109.5
X144.0Y-126.5
X144.0Y-143.5
X144.0Y-160.5
X149.0Y-111.7
X149.0Y-128.7
X149.0Y-145.7
X149.0Y-162.7
X162.0Y-113.75
X162.0Y-130.75
X162.0Y-147.75
X162.0Y-164.75
X167.0Y-115.95
X167.0Y-132.95
X167.0Y-149.95
X167.0Y-166.95
X180.0Y-118.0
X180.0Y-135.0
X180.0Y-152.0
X180.0Y-169.0
X185.0Y-120.2
X185.0Y-137.2
X185.0Y-154.2
X185.0Y-171.2
X263.0Y-118.0
X263.0Y-135.0
X263.0Y-152.0
X263.0Y-169.0
X268.0Y-120.2
X268.0Y-137.2
X268.0Y-154.2
X268.0Y-171.2
X281.0Y-113.75
X281.0Y-130.75
X281.0Y-147.75
X281.0Y-164.75
X286.0Y-115.95
X286.0Y-132.95
X286.0Y-149.95
X286.0Y-166.95
X299.0Y-109.5
X299.0Y-126.5
X299.0Y-143.5
X299.0Y-160.5
X304.0Y-111.7
X304.0Y-128.7
X304.0Y-145.7
X304.0Y-162.7
X317.0Y-113.75
X317.0Y-130.75
X317.0Y-147.8
X317.0Y-164.75
X322.0Y-115.95
X322.0Y-132.95
X322.0Y-150.0
X322.0Y-166.95
X335.0Y-122.25
X335.0Y-139.25
X335.0Y-156.25
X335.0Y-173.25
X340.0Y-124.45
X340.0Y-141.45
X340.0Y-158.45
X340.0Y-175.45
X353.0Y-122.25
X353.0Y-139.25
X353.0Y-156.25
X353.0Y-173.25
X358.0Y-124.45
X358.0Y-141.45
X358.0Y-158.45
X358.0Y-175.45
T5
X88.3Y-178.75
X88.3Y-181.25
X89.15Y-178.75
X89.15Y-181.25
X90.0Y-178.75
X90.0Y-181.25
X90.85Y-178.75
X90.85Y-181.25
X91.7Y-178.75
X91.7Y-181.25
X117.3Y-178.75
X117.3Y-181.25
X118.15Y-178.75
X118.15Y-181.25
X119.0Y-178.75
X119.0Y-181.25
X119.85Y-178.75
X119.85Y-181.25
X120.7Y-178.75
X120.7Y-181.25
X147.3Y-93.75
X147.3Y-96.25
X148.15Y-93.75
X148.15Y-96.25
X149.0Y-93.75
X149.0Y-96.25
X149.85Y-93.75
X149.85Y-96.25
X150.7Y-93.75
X150.7Y-96.25
X209.621Y-164.025
X209.8Y-178.75
X209.8Y-181.25
X210.222Y-163.424
X210.65Y-178.75
X210.65Y-181.25
X210.823Y-162.823
X211.389Y-165.793
X211.424Y-162.222
X211.5Y-178.75
X211.5Y-181.25
X211.99Y-165.192
X212.025Y-161.621
X212.35Y-178.75
X212.35Y-181.25
X212.591Y-164.591
X213.192Y-163.99
X213.2Y-178.75
X213.2Y-181.25
X213.793Y-163.389
X219.75Y-108.8
X219.75Y-109.65
X219.75Y-110.5
X219.75Y-111.35
X219.75Y-112.2
X219.75Y-123.8
X219.75Y-124.65
X219.75Y-125.5
X219.75Y-126.35
X219.75Y-127.2
X219.75Y-138.8
X219.75Y-139.65
X219.75Y-140.5
X219.75Y-141.35
X219.75Y-142.2
X222.25Y-108.8
X222.25Y-109.65
X222.25Y-110.5
X222.25Y-111.35
X222.25Y-112.2
X222.25Y-123.8
X222.25Y-124.65
X222.25Y-125.5
X222.25Y-126.35
X222.25Y-127.2
X222.25Y-138.8
X222.25Y-139.65
X222.25Y-140.5
X222.25Y-141.35
X222.25Y-142.2
X224.8Y-93.75
X224.8Y-96.25
X224.8Y-102.75
X224.8Y-105.25
X224.8Y-152.75
X224.8Y-155.25
X224.8Y-178.75
X224.8Y-181.25
X225.65Y-93.75
X225.65Y-96.25
X225.65Y-102.75
X225.65Y-105.25
X225.65Y-152.75
X225.65Y-155.25
X225.65Y-178.75
X225.65Y-181.25
X226.5Y-93.75
X226.5Y-96.25
X226.5Y-102.75
X226.5Y-105.25
X226.5Y-152.75
X226.5Y-155.25
X226.5Y-178.75
X226.5Y-181.25
X227.35Y-93.75
X227.35Y-96.25
X227.35Y-102.75
X227.35Y-105.25
X227.35Y-152.75
X227.35Y-155.25
X227.35Y-178.75
X227.35Y-181.25
X228.2Y-93.75
X228.2Y-96.25
X228.2Y-102.75
X228.2Y-105.25
X228.2Y-152.75
X228.2Y-155.25
X228.2Y-178.75
X228.2Y-181.25
X230.75Y-108.8
X230.75Y-109.65
X230.75Y-110.5
X230.75Y-111.35
X230.75Y-112.2
X230.75Y-123.8
X230.75Y-124.65
X230.75Y-125.5
X230.75Y-126.35
X230.75Y-127.2
X230.75Y-138.8
X230.75Y-139.65
X230.75Y-140.5
X230.75Y-141.35
X230.75Y-142.2
X233.25Y-108.8
X233.25Y-109.65
X233.25Y-110.5
X233.25Y-111.35
X233.25Y-112.2
X233.25Y-123.8
X233.25Y-124.65
X233.25Y-125.5
X233.25Y-126.35
X233.25Y-127.2
X233.25Y-138.8
X233.25Y-139.65
X233.25Y-140.5
X233.25Y-141.35
X233.25Y-142.2
X239.207Y-163.389
X239.8Y-178.75
X239.8Y-181.25
X239.808Y-163.99
X240.409Y-164.591
X240.65Y-178.75
X240.65Y-181.25
X240.975Y-161.621
X241.01Y-165.192
X241.5Y-178.75
X241.5Y-181.25
X241.576Y-162.222
X241.611Y-165.793
X242.177Y-162.823
X242.35Y-178.75
X242.35Y-181.25
X242.778Y-163.424
X243.2Y-178.75
X243.2Y-181.25
X243.379Y-164.025
X302.3Y-93.75
X302.3Y-96.25
X303.15Y-93.75
X303.15Y-96.25
X304.0Y-93.75
X304.0Y-96.25
X304.85Y-93.75
X304.85Y-96.25
X305.7Y-93.75
X305.7Y-96.25
X332.3Y-178.75
X332.3Y-181.25
X333.15Y-178.75
X333.15Y-181.25
X334.0Y-178.75
X334.0Y-181.25
X334.85Y-178.75
X334.85Y-181.25
X335.7Y-178.75
X335.7Y-181.25
X361.3Y-178.75
X361.3Y-181.25
X362.15Y-178.75
X362.15Y-181.25
X363.0Y-178.75
X363.0Y-181.25
X363.85Y-178.75
X363.85Y-181.25
X364.7Y-178.75
X364.7Y-181.25
T6
X217.5Y-147.0
X217.5Y-150.0
X235.5Y-147.0
X235.5Y-150.0
T7
X89.5Y-118.5
X89.5Y-135.5
X89.5Y-152.5
X89.5Y-169.5
X100.5Y-118.5
X100.5Y-135.5
X100.5Y-152.5
X100.5Y-169.5
X107.5Y-118.5
X107.5Y-135.5
X107.5Y-152.5
X107.5Y-169.5
X118.5Y-118.5
X118.5Y-135.5
X118.5Y-152.5
X118.5Y-169.5
X125.5Y-110.0
X125.5Y-127.0
X125.5Y-144.0
X125.5Y-161.0
X136.5Y-110.0
X136.5Y-127.0
X136.5Y-144.0
X136.5Y-161.0
X143.5Y-105.75
X143.5Y-122.75
X143.5Y-139.75
X143.5Y-156.75
X154.5Y-105.75
X154.5Y-122.75
X154.5Y-139.75
X154.5Y-156.75
X161.5Y-110.0
X161.5Y-127.0
X161.5Y-144.0
X161.5Y-161.0
X172.5Y-110.0
X172.5Y-127.0
X172.5Y-144.0
X172.5Y-161.0
X179.5Y-114.25
X179.5Y-131.25
X179.5Y-148.25
X179.5Y-165.25
X190.5Y-114.25
X190.5Y-131.25
X190.5Y-148.25
X190.5Y-165.25
X262.5Y-114.25
X262.5Y-131.25
X262.5Y-148.25
X262.5Y-165.25
X273.5Y-114.25
X273.5Y-131.25
X273.5Y-148.25
X273.5Y-165.25
X280.5Y-110.0
X280.5Y-127.0
X280.5Y-144.0
X280.5Y-161.0
X291.5Y-110.0
X291.5Y-127.0
X291.5Y-144.0
X291.5Y-161.0
X298.5Y-105.75
X298.5Y-122.75
X298.5Y-139.75
X298.5Y-156.75
X309.5Y-105.75
X309.5Y-122.75
X309.5Y-139.75
X309.5Y-156.75
X316.5Y-110.0
X316.5Y-127.0
X316.5Y-144.05
X316.5Y-161.0
X327.5Y-110.0
X327.5Y-127.0
X327.5Y-144.05
X327.5Y-161.0
X334.5Y-118.5
X334.5Y-135.5
X334.5Y-152.5
X334.5Y-169.5
X345.5Y-118.5
X345.5Y-135.5
X345.5Y-152.5
X345.5Y-169.5
X352.5Y-118.5
X352.5Y-135.5
X352.5Y-152.5
X352.5Y-169.5
X363.5Y-118.5
X363.5Y-135.5
X363.5Y-152.5
X363.5Y-169.5
T8
X117.5Y-105.0
X126.5Y-173.0
X196.5Y-118.0
X198.5Y-162.0
X254.5Y-162.0
X256.5Y-118.0
X326.5Y-173.0
X335.5Y-105.0
T9
X95.0Y-118.5
X95.0Y-135.5
X95.0Y-152.5
X95.0Y-169.5
X113.0Y-118.5
X113.0Y-135.5
X113.0Y-152.5
X113.0Y-169.5
X131.0Y-110.0
X131.0Y-127.0
X131.0Y-144.0
X131.0Y-161.0
X149.0Y-105.75
X149.0Y-122.75
X149.0Y-139.75
X149.0Y-156.75
X167.0Y-110.0
X167.0Y-127.0
X167.0Y-144.0
X167.0Y-161.0
X185.0Y-114.25
X185.0Y-131.25
X185.0Y-148.25
X185.0Y-165.25
X268.0Y-114.25
X268.0Y-131.25
X268.0Y-148.25
X268.0Y-165.25
X286.0Y-110.0
X286.0Y-127.0
X286.0Y-144.0
X286.0Y-161.0
X304.0Y-105.75
X304.0Y-122.75
X304.0Y-139.75
X304.0Y-156.75
X322.0Y-110.0
X322.0Y-127.0
X322.0Y-144.05
X322.0Y-161.0
X340.0Y-118.5
X340.0Y-135.5
X340.0Y-152.5
X340.0Y-169.5
X358.0Y-118.5
X358.0Y-135.5
X358.0Y-152.5
X358.0Y-169.5
M30
