%TF.GenerationSoftware,KiCad,Pcbnew,10.0.4*%
%TF.CreationDate,2026-08-19T00:05:33-04:00*%
%TF.ProjectId,Split Keyboard v2,53706c69-7420-44b6-9579-626f61726420,rev?*%
%TF.SameCoordinates,Original*%
%TF.FileFunction,Soldermask,Bot*%
%TF.FilePolarity,Negative*%
%FSLAX46Y46*%
G04 Gerber Fmt 4.6, Leading zero omitted, Abs format (unit mm)*
G04 Created by KiCad (PCBNEW 10.0.4) date 2026-08-19 00:05:33*
%MOMM*%
%LPD*%
G01*
G04 APERTURE LIST*
G04 Aperture macros list*
%AMRoundRect*
0 Rectangle with rounded corners*
0 $1 Rounding radius*
0 $2 $3 $4 $5 $6 $7 $8 $9 X,Y pos of 4 corners*
0 Add a 4 corners polygon primitive as box body*
4,1,4,$2,$3,$4,$5,$6,$7,$8,$9,$2,$3,0*
0 Add four circle primitives for the rounded corners*
1,1,$1+$1,$2,$3*
1,1,$1+$1,$4,$5*
1,1,$1+$1,$6,$7*
1,1,$1+$1,$8,$9*
0 Add four rect primitives between the rounded corners*
20,1,$1+$1,$2,$3,$4,$5,0*
20,1,$1+$1,$4,$5,$6,$7,0*
20,1,$1+$1,$6,$7,$8,$9,0*
20,1,$1+$1,$8,$9,$2,$3,0*%
G04 Aperture macros list end*
%ADD10RoundRect,0.225000X-0.375000X0.225000X-0.375000X-0.225000X0.375000X-0.225000X0.375000X0.225000X0*%
%ADD11C,1.700000*%
%ADD12C,3.400000*%
%ADD13C,3.300000*%
%ADD14RoundRect,0.260000X1.065000X1.040000X-1.065000X1.040000X-1.065000X-1.040000X1.065000X-1.040000X0*%
%ADD15O,1.750000X1.200000*%
%ADD16RoundRect,0.250000X0.625000X-0.350000X0.625000X0.350000X-0.625000X0.350000X-0.625000X-0.350000X0*%
%ADD17C,0.500000*%
%ADD18C,1.800000*%
%ADD19RoundRect,0.450000X-0.450000X-0.450000X0.450000X-0.450000X0.450000X0.450000X-0.450000X0.450000X0*%
%ADD20O,1.800000X4.340000*%
%ADD21C,3.200000*%
%ADD22C,0.850000*%
%ADD23RoundRect,0.250000X-0.625000X0.350000X-0.625000X-0.350000X0.625000X-0.350000X0.625000X0.350000X0*%
G04 APERTURE END LIST*
D10*
%TO.C,D11*%
X139000000Y-137450000D03*
X139000000Y-140750000D03*
%TD*%
D11*
%TO.C,CH15*%
X154500000Y-139750000D03*
D12*
X149000000Y-139750000D03*
D11*
X143500000Y-139750000D03*
D13*
X144000000Y-143500000D03*
D14*
X140755000Y-143500000D03*
X152245000Y-145700000D03*
D13*
X149000000Y-145700000D03*
%TD*%
D15*
%TO.C,J1*%
X202050000Y-147500000D03*
D16*
X202050000Y-149500000D03*
%TD*%
D17*
%TO.C,REF\u002A\u002A*%
X224800000Y-102750000D03*
X224800000Y-105250000D03*
X225650000Y-102750000D03*
X225650000Y-105250000D03*
X226500000Y-102750000D03*
X226500000Y-105250000D03*
X227350000Y-102750000D03*
X227350000Y-105250000D03*
X228200000Y-102750000D03*
X228200000Y-105250000D03*
%TD*%
D18*
%TO.C,U1*%
X217120000Y-107047500D03*
D19*
X201880000Y-107047500D03*
D18*
X209500000Y-132447500D03*
X206960000Y-132447500D03*
X204420000Y-132447500D03*
X217120000Y-137527500D03*
X217120000Y-134987500D03*
X217120000Y-132447500D03*
X217120000Y-129907500D03*
X217120000Y-127367500D03*
X217120000Y-124827500D03*
X217120000Y-122287500D03*
X217120000Y-119747500D03*
X217120000Y-117207500D03*
X217120000Y-114667500D03*
D19*
X217120000Y-112127500D03*
D20*
X217120000Y-108317500D03*
D18*
X201880000Y-137527500D03*
X201880000Y-134987500D03*
X201880000Y-132447500D03*
X201880000Y-129907500D03*
X201880000Y-127367500D03*
X201880000Y-124827500D03*
X201880000Y-122287500D03*
X201880000Y-119747500D03*
D19*
X201880000Y-117207500D03*
X201880000Y-114667500D03*
D18*
X201880000Y-112127500D03*
X201880000Y-109587500D03*
%TD*%
D21*
%TO.C,REF\u002A\u002A*%
X256500000Y-118000000D03*
%TD*%
D17*
%TO.C,REF\u002A\u002A*%
X219750000Y-127200000D03*
X222250000Y-127200000D03*
X219750000Y-126350000D03*
X222250000Y-126350000D03*
X219750000Y-125500000D03*
X222250000Y-125500000D03*
X219750000Y-124650000D03*
X222250000Y-124650000D03*
X219750000Y-123800000D03*
X222250000Y-123800000D03*
%TD*%
D13*
%TO.C,CH12*%
X131000000Y-166950000D03*
D14*
X134245000Y-166950000D03*
X122755000Y-164750000D03*
D13*
X126000000Y-164750000D03*
D11*
X125500000Y-161000000D03*
D12*
X131000000Y-161000000D03*
D11*
X136500000Y-161000000D03*
%TD*%
D10*
%TO.C,D32*%
X278000000Y-161000000D03*
X278000000Y-157700000D03*
%TD*%
D13*
%TO.C,CH9*%
X131000000Y-115950000D03*
D14*
X134245000Y-115950000D03*
X122755000Y-113750000D03*
D13*
X126000000Y-113750000D03*
D11*
X125500000Y-110000000D03*
D12*
X131000000Y-110000000D03*
D11*
X136500000Y-110000000D03*
%TD*%
D10*
%TO.C,D48*%
X350000000Y-166500000D03*
X350000000Y-163200000D03*
%TD*%
%TO.C,D41*%
X332000000Y-115650000D03*
X332000000Y-112350000D03*
%TD*%
D13*
%TO.C,CH11*%
X131000000Y-149950000D03*
D14*
X134245000Y-149950000D03*
X122755000Y-147750000D03*
D13*
X126000000Y-147750000D03*
D11*
X125500000Y-144000000D03*
D12*
X131000000Y-144000000D03*
D11*
X136500000Y-144000000D03*
%TD*%
D13*
%TO.C,CH41*%
X340000000Y-124450000D03*
D14*
X343245000Y-124450000D03*
X331755000Y-122250000D03*
D13*
X335000000Y-122250000D03*
D11*
X334500000Y-118500000D03*
D12*
X340000000Y-118500000D03*
D11*
X345500000Y-118500000D03*
%TD*%
D13*
%TO.C,CH47*%
X358000000Y-158450000D03*
D14*
X361245000Y-158450000D03*
X349755000Y-156250000D03*
D13*
X353000000Y-156250000D03*
D11*
X352500000Y-152500000D03*
D12*
X358000000Y-152500000D03*
D11*
X363500000Y-152500000D03*
%TD*%
D13*
%TO.C,CH10*%
X131000000Y-132950000D03*
D14*
X134245000Y-132950000D03*
X122755000Y-130750000D03*
D13*
X126000000Y-130750000D03*
D11*
X125500000Y-127000000D03*
D12*
X131000000Y-127000000D03*
D11*
X136500000Y-127000000D03*
%TD*%
D13*
%TO.C,CH14*%
X149000000Y-128700000D03*
D14*
X152245000Y-128700000D03*
X140755000Y-126500000D03*
D13*
X144000000Y-126500000D03*
D11*
X143500000Y-122750000D03*
D12*
X149000000Y-122750000D03*
D11*
X154500000Y-122750000D03*
%TD*%
D10*
%TO.C,D17*%
X175000000Y-111650000D03*
X175000000Y-108350000D03*
%TD*%
D13*
%TO.C,CH34*%
X304000000Y-128700000D03*
D14*
X307245000Y-128700000D03*
X295755000Y-126500000D03*
D13*
X299000000Y-126500000D03*
D11*
X298500000Y-122750000D03*
D12*
X304000000Y-122750000D03*
D11*
X309500000Y-122750000D03*
%TD*%
D10*
%TO.C,D45*%
X350000000Y-115650000D03*
X350000000Y-112350000D03*
%TD*%
D13*
%TO.C,CH18*%
X167000000Y-132950000D03*
D14*
X170245000Y-132950000D03*
X158755000Y-130750000D03*
D13*
X162000000Y-130750000D03*
D11*
X161500000Y-127000000D03*
D12*
X167000000Y-127000000D03*
D11*
X172500000Y-127000000D03*
%TD*%
D10*
%TO.C,D35*%
X296000000Y-139650000D03*
X296000000Y-136350000D03*
%TD*%
%TO.C,D7*%
X121000000Y-154400000D03*
X121000000Y-151100000D03*
%TD*%
D13*
%TO.C,CH20*%
X167000000Y-166950000D03*
D14*
X170245000Y-166950000D03*
X158755000Y-164750000D03*
D13*
X162000000Y-164750000D03*
D11*
X161500000Y-161000000D03*
D12*
X167000000Y-161000000D03*
D11*
X172500000Y-161000000D03*
%TD*%
D13*
%TO.C,CH30*%
X286000000Y-132950000D03*
D14*
X289245000Y-132950000D03*
X277755000Y-130750000D03*
D13*
X281000000Y-130750000D03*
D11*
X280500000Y-127000000D03*
D12*
X286000000Y-127000000D03*
D11*
X291500000Y-127000000D03*
%TD*%
D10*
%TO.C,D22*%
X190250000Y-128400000D03*
X190250000Y-125100000D03*
%TD*%
D13*
%TO.C,CH32*%
X286000000Y-166950000D03*
D14*
X289245000Y-166950000D03*
X277755000Y-164750000D03*
D13*
X281000000Y-164750000D03*
D11*
X280500000Y-161000000D03*
D12*
X286000000Y-161000000D03*
D11*
X291500000Y-161000000D03*
%TD*%
D13*
%TO.C,CH45*%
X358000000Y-124450000D03*
D14*
X361245000Y-124450000D03*
X349755000Y-122250000D03*
D13*
X353000000Y-122250000D03*
D11*
X352500000Y-118500000D03*
D12*
X358000000Y-118500000D03*
D11*
X363500000Y-118500000D03*
%TD*%
D10*
%TO.C,D20*%
X175000000Y-162650000D03*
X175000000Y-159350000D03*
%TD*%
D13*
%TO.C,CH13*%
X149000000Y-111700000D03*
D14*
X152245000Y-111700000D03*
X140755000Y-109500000D03*
D13*
X144000000Y-109500000D03*
D11*
X143500000Y-105750000D03*
D12*
X149000000Y-105750000D03*
D11*
X154500000Y-105750000D03*
%TD*%
D10*
%TO.C,D25*%
X260000000Y-110150000D03*
X260000000Y-106850000D03*
%TD*%
%TO.C,D2*%
X103000000Y-135800000D03*
X103000000Y-132500000D03*
%TD*%
%TO.C,D13*%
X157000000Y-107400000D03*
X157000000Y-104100000D03*
%TD*%
D13*
%TO.C,CH24*%
X185000000Y-171200000D03*
D14*
X188245000Y-171200000D03*
X176755000Y-169000000D03*
D13*
X180000000Y-169000000D03*
D11*
X179500000Y-165250000D03*
D12*
X185000000Y-165250000D03*
D11*
X190500000Y-165250000D03*
%TD*%
D10*
%TO.C,D42*%
X332000000Y-132650000D03*
X332000000Y-129350000D03*
%TD*%
D13*
%TO.C,CH46*%
X358000000Y-141450000D03*
D14*
X361245000Y-141450000D03*
X349755000Y-139250000D03*
D13*
X353000000Y-139250000D03*
D11*
X352500000Y-135500000D03*
D12*
X358000000Y-135500000D03*
D11*
X363500000Y-135500000D03*
%TD*%
D10*
%TO.C,D16*%
X157000000Y-158650000D03*
X157000000Y-155350000D03*
%TD*%
%TO.C,D43*%
X332000000Y-149500000D03*
X332000000Y-146200000D03*
%TD*%
D13*
%TO.C,CH28*%
X268000000Y-171200000D03*
D14*
X271245000Y-171200000D03*
X259755000Y-169000000D03*
D13*
X263000000Y-169000000D03*
D11*
X262500000Y-165250000D03*
D12*
X268000000Y-165250000D03*
D11*
X273500000Y-165250000D03*
%TD*%
D13*
%TO.C,CH8*%
X113000000Y-175450000D03*
D14*
X116245000Y-175450000D03*
X104755000Y-173250000D03*
D13*
X108000000Y-173250000D03*
D11*
X107500000Y-169500000D03*
D12*
X113000000Y-169500000D03*
D11*
X118500000Y-169500000D03*
%TD*%
D13*
%TO.C,CH42*%
X340000000Y-141450000D03*
D14*
X343245000Y-141450000D03*
X331755000Y-139250000D03*
D13*
X335000000Y-139250000D03*
D11*
X334500000Y-135500000D03*
D12*
X340000000Y-135500000D03*
D11*
X345500000Y-135500000D03*
%TD*%
D10*
%TO.C,D40*%
X314000000Y-159000000D03*
X314000000Y-155700000D03*
%TD*%
D13*
%TO.C,CH40*%
X322000000Y-166950000D03*
D14*
X325245000Y-166950000D03*
X313755000Y-164750000D03*
D13*
X317000000Y-164750000D03*
D11*
X316500000Y-161000000D03*
D12*
X322000000Y-161000000D03*
D11*
X327500000Y-161000000D03*
%TD*%
D10*
%TO.C,D36*%
X296000000Y-156500000D03*
X296000000Y-153200000D03*
%TD*%
D13*
%TO.C,CH17*%
X167000000Y-115950000D03*
D14*
X170245000Y-115950000D03*
X158755000Y-113750000D03*
D13*
X162000000Y-113750000D03*
D11*
X161500000Y-110000000D03*
D12*
X167000000Y-110000000D03*
D11*
X172500000Y-110000000D03*
%TD*%
D10*
%TO.C,D18*%
X174750000Y-128400000D03*
X174750000Y-125100000D03*
%TD*%
D17*
%TO.C,REF\u002A\u002A*%
X335700000Y-181250000D03*
X335700000Y-178750000D03*
X334850000Y-181250000D03*
X334850000Y-178750000D03*
X334000000Y-181250000D03*
X334000000Y-178750000D03*
X333150000Y-181250000D03*
X333150000Y-178750000D03*
X332300000Y-181250000D03*
X332300000Y-178750000D03*
%TD*%
%TO.C,REF\u002A\u002A*%
X230750000Y-112200000D03*
X233250000Y-112200000D03*
X230750000Y-111350000D03*
X233250000Y-111350000D03*
X230750000Y-110500000D03*
X233250000Y-110500000D03*
X230750000Y-109650000D03*
X233250000Y-109650000D03*
X230750000Y-108800000D03*
X233250000Y-108800000D03*
%TD*%
D22*
%TO.C,S1*%
X217500000Y-147000000D03*
X217500000Y-150000000D03*
%TD*%
D10*
%TO.C,D14*%
X157000000Y-124400000D03*
X157000000Y-121100000D03*
%TD*%
%TO.C,D6*%
X120750000Y-137400000D03*
X120750000Y-134100000D03*
%TD*%
D13*
%TO.C,CH19*%
X167000000Y-149950000D03*
D14*
X170245000Y-149950000D03*
X158755000Y-147750000D03*
D13*
X162000000Y-147750000D03*
D11*
X161500000Y-144000000D03*
D12*
X167000000Y-144000000D03*
D11*
X172500000Y-144000000D03*
%TD*%
D10*
%TO.C,D9*%
X139000000Y-106650000D03*
X139000000Y-103350000D03*
%TD*%
%TO.C,D37*%
X314000000Y-107650000D03*
X314000000Y-104350000D03*
%TD*%
%TO.C,D5*%
X121000000Y-120150000D03*
X121000000Y-116850000D03*
%TD*%
D13*
%TO.C,CH37*%
X322000000Y-115950000D03*
D14*
X325245000Y-115950000D03*
X313755000Y-113750000D03*
D13*
X317000000Y-113750000D03*
D11*
X316500000Y-110000000D03*
D12*
X322000000Y-110000000D03*
D11*
X327500000Y-110000000D03*
%TD*%
D10*
%TO.C,D8*%
X121000000Y-171500000D03*
X121000000Y-168200000D03*
%TD*%
D13*
%TO.C,CH27*%
X268000000Y-154200000D03*
D14*
X271245000Y-154200000D03*
X259755000Y-152000000D03*
D13*
X263000000Y-152000000D03*
D11*
X262500000Y-148250000D03*
D12*
X268000000Y-148250000D03*
D11*
X273500000Y-148250000D03*
%TD*%
D21*
%TO.C,REF\u002A\u002A*%
X254500000Y-162000000D03*
%TD*%
D17*
%TO.C,REF\u002A\u002A*%
X305700000Y-96250000D03*
X305700000Y-93750000D03*
X304850000Y-96250000D03*
X304850000Y-93750000D03*
X304000000Y-96250000D03*
X304000000Y-93750000D03*
X303150000Y-96250000D03*
X303150000Y-93750000D03*
X302300000Y-96250000D03*
X302300000Y-93750000D03*
%TD*%
%TO.C,REF\u002A\u002A*%
X240974695Y-161621142D03*
X239206928Y-163388909D03*
X241575736Y-162222183D03*
X239807969Y-163989949D03*
X242176777Y-162823223D03*
X240409010Y-164590990D03*
X242777817Y-163424264D03*
X241010051Y-165192031D03*
X243378858Y-164025305D03*
X241611091Y-165793072D03*
%TD*%
%TO.C,REF\u002A\u002A*%
X213200000Y-181250000D03*
X213200000Y-178750000D03*
X212350000Y-181250000D03*
X212350000Y-178750000D03*
X211500000Y-181250000D03*
X211500000Y-178750000D03*
X210650000Y-181250000D03*
X210650000Y-178750000D03*
X209800000Y-181250000D03*
X209800000Y-178750000D03*
%TD*%
D10*
%TO.C,D12*%
X139000000Y-157650000D03*
X139000000Y-154350000D03*
%TD*%
%TO.C,D29*%
X278000000Y-110150000D03*
X278000000Y-106850000D03*
%TD*%
D21*
%TO.C,REF\u002A\u002A*%
X198500000Y-162000000D03*
%TD*%
D17*
%TO.C,REF\u002A\u002A*%
X91700000Y-181250000D03*
X91700000Y-178750000D03*
X90850000Y-181250000D03*
X90850000Y-178750000D03*
X90000000Y-181250000D03*
X90000000Y-178750000D03*
X89150000Y-181250000D03*
X89150000Y-178750000D03*
X88300000Y-181250000D03*
X88300000Y-178750000D03*
%TD*%
D22*
%TO.C,S2*%
X235500000Y-150000000D03*
X235500000Y-147000000D03*
%TD*%
D15*
%TO.C,J2*%
X250950000Y-149000000D03*
D23*
X250950000Y-147000000D03*
%TD*%
D21*
%TO.C,REF\u002A\u002A*%
X196500000Y-118000000D03*
%TD*%
D17*
%TO.C,REF\u002A\u002A*%
X209621142Y-164025305D03*
X211388909Y-165793072D03*
X210222183Y-163424264D03*
X211989949Y-165192031D03*
X210823223Y-162823223D03*
X212590990Y-164590990D03*
X211424264Y-162222183D03*
X213192031Y-163989949D03*
X212025305Y-161621142D03*
X213793072Y-163388909D03*
%TD*%
D10*
%TO.C,D24*%
X190250000Y-162650000D03*
X190250000Y-159350000D03*
%TD*%
D13*
%TO.C,CH36*%
X304000000Y-162700000D03*
D14*
X307245000Y-162700000D03*
X295755000Y-160500000D03*
D13*
X299000000Y-160500000D03*
D11*
X298500000Y-156750000D03*
D12*
X304000000Y-156750000D03*
D11*
X309500000Y-156750000D03*
%TD*%
D13*
%TO.C,CH1*%
X95000000Y-124450000D03*
D14*
X98245000Y-124450000D03*
X86755000Y-122250000D03*
D13*
X90000000Y-122250000D03*
D11*
X89500000Y-118500000D03*
D12*
X95000000Y-118500000D03*
D11*
X100500000Y-118500000D03*
%TD*%
D13*
%TO.C,CH43*%
X340000000Y-158450000D03*
D14*
X343245000Y-158450000D03*
X331755000Y-156250000D03*
D13*
X335000000Y-156250000D03*
D11*
X334500000Y-152500000D03*
D12*
X340000000Y-152500000D03*
D11*
X345500000Y-152500000D03*
%TD*%
D13*
%TO.C,CH29*%
X286000000Y-115950000D03*
D14*
X289245000Y-115950000D03*
X277755000Y-113750000D03*
D13*
X281000000Y-113750000D03*
D11*
X280500000Y-110000000D03*
D12*
X286000000Y-110000000D03*
D11*
X291500000Y-110000000D03*
%TD*%
D10*
%TO.C,D19*%
X175000000Y-145650000D03*
X175000000Y-142350000D03*
%TD*%
D17*
%TO.C,REF\u002A\u002A*%
X364700000Y-181250000D03*
X364700000Y-178750000D03*
X363850000Y-181250000D03*
X363850000Y-178750000D03*
X363000000Y-181250000D03*
X363000000Y-178750000D03*
X362150000Y-181250000D03*
X362150000Y-178750000D03*
X361300000Y-181250000D03*
X361300000Y-178750000D03*
%TD*%
D13*
%TO.C,CH25*%
X268000000Y-120200000D03*
D14*
X271245000Y-120200000D03*
X259755000Y-118000000D03*
D13*
X263000000Y-118000000D03*
D11*
X262500000Y-114250000D03*
D12*
X268000000Y-114250000D03*
D11*
X273500000Y-114250000D03*
%TD*%
D17*
%TO.C,REF\u002A\u002A*%
X230750000Y-142200000D03*
X233250000Y-142200000D03*
X230750000Y-141350000D03*
X233250000Y-141350000D03*
X230750000Y-140500000D03*
X233250000Y-140500000D03*
X230750000Y-139650000D03*
X233250000Y-139650000D03*
X230750000Y-138800000D03*
X233250000Y-138800000D03*
%TD*%
%TO.C,REF\u002A\u002A*%
X230750000Y-127200000D03*
X233250000Y-127200000D03*
X230750000Y-126350000D03*
X233250000Y-126350000D03*
X230750000Y-125500000D03*
X233250000Y-125500000D03*
X230750000Y-124650000D03*
X233250000Y-124650000D03*
X230750000Y-123800000D03*
X233250000Y-123800000D03*
%TD*%
%TO.C,REF\u002A\u002A*%
X219750000Y-112200000D03*
X222250000Y-112200000D03*
X219750000Y-111350000D03*
X222250000Y-111350000D03*
X219750000Y-110500000D03*
X222250000Y-110500000D03*
X219750000Y-109650000D03*
X222250000Y-109650000D03*
X219750000Y-108800000D03*
X222250000Y-108800000D03*
%TD*%
D13*
%TO.C,CH21*%
X185000000Y-120200000D03*
D14*
X188245000Y-120200000D03*
X176755000Y-118000000D03*
D13*
X180000000Y-118000000D03*
D11*
X179500000Y-114250000D03*
D12*
X185000000Y-114250000D03*
D11*
X190500000Y-114250000D03*
%TD*%
D17*
%TO.C,REF\u002A\u002A*%
X219750000Y-142200000D03*
X222250000Y-142200000D03*
X219750000Y-141350000D03*
X222250000Y-141350000D03*
X219750000Y-140500000D03*
X222250000Y-140500000D03*
X219750000Y-139650000D03*
X222250000Y-139650000D03*
X219750000Y-138800000D03*
X222250000Y-138800000D03*
%TD*%
%TO.C,REF\u002A\u002A*%
X150700000Y-96250000D03*
X150700000Y-93750000D03*
X149850000Y-96250000D03*
X149850000Y-93750000D03*
X149000000Y-96250000D03*
X149000000Y-93750000D03*
X148150000Y-96250000D03*
X148150000Y-93750000D03*
X147300000Y-96250000D03*
X147300000Y-93750000D03*
%TD*%
D21*
%TO.C,REF\u002A\u002A*%
X126500000Y-173000000D03*
%TD*%
%TO.C,REF\u002A\u002A*%
X326500000Y-173000000D03*
%TD*%
D13*
%TO.C,CH4*%
X95000000Y-175450000D03*
D14*
X98245000Y-175450000D03*
X86755000Y-173250000D03*
D13*
X90000000Y-173250000D03*
D11*
X89500000Y-169500000D03*
D12*
X95000000Y-169500000D03*
D11*
X100500000Y-169500000D03*
%TD*%
D13*
%TO.C,CH31*%
X286000000Y-149950000D03*
D14*
X289245000Y-149950000D03*
X277755000Y-147750000D03*
D13*
X281000000Y-147750000D03*
D11*
X280500000Y-144000000D03*
D12*
X286000000Y-144000000D03*
D11*
X291500000Y-144000000D03*
%TD*%
D10*
%TO.C,D46*%
X350000000Y-132650000D03*
X350000000Y-129350000D03*
%TD*%
D13*
%TO.C,CH33*%
X304000000Y-111700000D03*
D14*
X307245000Y-111700000D03*
X295755000Y-109500000D03*
D13*
X299000000Y-109500000D03*
D11*
X298500000Y-105750000D03*
D12*
X304000000Y-105750000D03*
D11*
X309500000Y-105750000D03*
%TD*%
D10*
%TO.C,D27*%
X260000000Y-143800000D03*
X260000000Y-140500000D03*
%TD*%
%TO.C,D44*%
X332000000Y-166500000D03*
X332000000Y-163200000D03*
%TD*%
D13*
%TO.C,CH44*%
X340000000Y-175450000D03*
D14*
X343245000Y-175450000D03*
X331755000Y-173250000D03*
D13*
X335000000Y-173250000D03*
D11*
X334500000Y-169500000D03*
D12*
X340000000Y-169500000D03*
D11*
X345500000Y-169500000D03*
%TD*%
D10*
%TO.C,D15*%
X157000000Y-141500000D03*
X157000000Y-138200000D03*
%TD*%
%TO.C,D3*%
X103000000Y-152900000D03*
X103000000Y-149600000D03*
%TD*%
D13*
%TO.C,CH23*%
X185000000Y-154200000D03*
D14*
X188245000Y-154200000D03*
X176755000Y-152000000D03*
D13*
X180000000Y-152000000D03*
D11*
X179500000Y-148250000D03*
D12*
X185000000Y-148250000D03*
D11*
X190500000Y-148250000D03*
%TD*%
D10*
%TO.C,D21*%
X190250000Y-111650000D03*
X190250000Y-108350000D03*
%TD*%
D13*
%TO.C,CH26*%
X268000000Y-137200000D03*
D14*
X271245000Y-137200000D03*
X259755000Y-135000000D03*
D13*
X263000000Y-135000000D03*
D11*
X262500000Y-131250000D03*
D12*
X268000000Y-131250000D03*
D11*
X273500000Y-131250000D03*
%TD*%
D13*
%TO.C,CH39*%
X322000000Y-150000000D03*
D14*
X325245000Y-150000000D03*
X313755000Y-147800000D03*
D13*
X317000000Y-147800000D03*
D11*
X316500000Y-144050000D03*
D12*
X322000000Y-144050000D03*
D11*
X327500000Y-144050000D03*
%TD*%
D13*
%TO.C,CH3*%
X95000000Y-158450000D03*
D14*
X98245000Y-158450000D03*
X86755000Y-156250000D03*
D13*
X90000000Y-156250000D03*
D11*
X89500000Y-152500000D03*
D12*
X95000000Y-152500000D03*
D11*
X100500000Y-152500000D03*
%TD*%
D10*
%TO.C,D4*%
X103000000Y-169900000D03*
X103000000Y-166600000D03*
%TD*%
D13*
%TO.C,CH16*%
X149000000Y-162700000D03*
D14*
X152245000Y-162700000D03*
X140755000Y-160500000D03*
D13*
X144000000Y-160500000D03*
D11*
X143500000Y-156750000D03*
D12*
X149000000Y-156750000D03*
D11*
X154500000Y-156750000D03*
%TD*%
D10*
%TO.C,D28*%
X260000000Y-161150000D03*
X260000000Y-157850000D03*
%TD*%
D18*
%TO.C,U2*%
X251055000Y-107047500D03*
D19*
X235815000Y-107047500D03*
D18*
X243435000Y-132447500D03*
X240895000Y-132447500D03*
X238355000Y-132447500D03*
X251055000Y-137527500D03*
X251055000Y-134987500D03*
X251055000Y-132447500D03*
X251055000Y-129907500D03*
X251055000Y-127367500D03*
X251055000Y-124827500D03*
X251055000Y-122287500D03*
X251055000Y-119747500D03*
X251055000Y-117207500D03*
X251055000Y-114667500D03*
D19*
X251055000Y-112127500D03*
D20*
X251055000Y-108317500D03*
D18*
X235815000Y-137527500D03*
X235815000Y-134987500D03*
X235815000Y-132447500D03*
X235815000Y-129907500D03*
X235815000Y-127367500D03*
X235815000Y-124827500D03*
X235815000Y-122287500D03*
X235815000Y-119747500D03*
D19*
X235815000Y-117207500D03*
X235815000Y-114667500D03*
D18*
X235815000Y-112127500D03*
X235815000Y-109587500D03*
%TD*%
D21*
%TO.C,REF\u002A\u002A*%
X335500000Y-105000000D03*
%TD*%
%TO.C,REF\u002A\u002A*%
X117500000Y-105000000D03*
%TD*%
D17*
%TO.C,REF\u002A\u002A*%
X228200000Y-96250000D03*
X228200000Y-93750000D03*
X227350000Y-96250000D03*
X227350000Y-93750000D03*
X226500000Y-96250000D03*
X226500000Y-93750000D03*
X225650000Y-96250000D03*
X225650000Y-93750000D03*
X224800000Y-96250000D03*
X224800000Y-93750000D03*
%TD*%
%TO.C,REF\u002A\u002A*%
X228200000Y-181250000D03*
X228200000Y-178750000D03*
X227350000Y-181250000D03*
X227350000Y-178750000D03*
X226500000Y-181250000D03*
X226500000Y-178750000D03*
X225650000Y-181250000D03*
X225650000Y-178750000D03*
X224800000Y-181250000D03*
X224800000Y-178750000D03*
%TD*%
%TO.C,REF\u002A\u002A*%
X243200000Y-181250000D03*
X243200000Y-178750000D03*
X242350000Y-181250000D03*
X242350000Y-178750000D03*
X241500000Y-181250000D03*
X241500000Y-178750000D03*
X240650000Y-181250000D03*
X240650000Y-178750000D03*
X239800000Y-181250000D03*
X239800000Y-178750000D03*
%TD*%
D10*
%TO.C,D23*%
X190250000Y-145750000D03*
X190250000Y-142450000D03*
%TD*%
D13*
%TO.C,CH6*%
X113000000Y-141450000D03*
D14*
X116245000Y-141450000D03*
X104755000Y-139250000D03*
D13*
X108000000Y-139250000D03*
D11*
X107500000Y-135500000D03*
D12*
X113000000Y-135500000D03*
D11*
X118500000Y-135500000D03*
%TD*%
D10*
%TO.C,D34*%
X296000000Y-122500000D03*
X296000000Y-119200000D03*
%TD*%
D13*
%TO.C,CH2*%
X95000000Y-141450000D03*
D14*
X98245000Y-141450000D03*
X86755000Y-139250000D03*
D13*
X90000000Y-139250000D03*
D11*
X89500000Y-135500000D03*
D12*
X95000000Y-135500000D03*
D11*
X100500000Y-135500000D03*
%TD*%
D13*
%TO.C,CH48*%
X358000000Y-175450000D03*
D14*
X361245000Y-175450000D03*
X349755000Y-173250000D03*
D13*
X353000000Y-173250000D03*
D11*
X352500000Y-169500000D03*
D12*
X358000000Y-169500000D03*
D11*
X363500000Y-169500000D03*
%TD*%
D10*
%TO.C,D47*%
X350000000Y-149500000D03*
X350000000Y-146200000D03*
%TD*%
D13*
%TO.C,CH35*%
X304000000Y-145700000D03*
D14*
X307245000Y-145700000D03*
X295755000Y-143500000D03*
D13*
X299000000Y-143500000D03*
D11*
X298500000Y-139750000D03*
D12*
X304000000Y-139750000D03*
D11*
X309500000Y-139750000D03*
%TD*%
D10*
%TO.C,D39*%
X314000000Y-142150000D03*
X314000000Y-138850000D03*
%TD*%
%TO.C,D10*%
X138750000Y-123750000D03*
X138750000Y-120450000D03*
%TD*%
%TO.C,D38*%
X314000000Y-124650000D03*
X314000000Y-121350000D03*
%TD*%
D13*
%TO.C,CH22*%
X185000000Y-137200000D03*
D14*
X188245000Y-137200000D03*
X176755000Y-135000000D03*
D13*
X180000000Y-135000000D03*
D11*
X179500000Y-131250000D03*
D12*
X185000000Y-131250000D03*
D11*
X190500000Y-131250000D03*
%TD*%
D10*
%TO.C,D1*%
X103000000Y-118900000D03*
X103000000Y-115600000D03*
%TD*%
%TO.C,D26*%
X260000000Y-127150000D03*
X260000000Y-123850000D03*
%TD*%
D13*
%TO.C,CH5*%
X113000000Y-124450000D03*
D14*
X116245000Y-124450000D03*
X104755000Y-122250000D03*
D13*
X108000000Y-122250000D03*
D11*
X107500000Y-118500000D03*
D12*
X113000000Y-118500000D03*
D11*
X118500000Y-118500000D03*
%TD*%
D10*
%TO.C,D30*%
X278000000Y-127000000D03*
X278000000Y-123700000D03*
%TD*%
D13*
%TO.C,CH38*%
X322000000Y-132950000D03*
D14*
X325245000Y-132950000D03*
X313755000Y-130750000D03*
D13*
X317000000Y-130750000D03*
D11*
X316500000Y-127000000D03*
D12*
X322000000Y-127000000D03*
D11*
X327500000Y-127000000D03*
%TD*%
D10*
%TO.C,D33*%
X296000000Y-105650000D03*
X296000000Y-102350000D03*
%TD*%
D13*
%TO.C,CH7*%
X113000000Y-158450000D03*
D14*
X116245000Y-158450000D03*
X104755000Y-156250000D03*
D13*
X108000000Y-156250000D03*
D11*
X107500000Y-152500000D03*
D12*
X113000000Y-152500000D03*
D11*
X118500000Y-152500000D03*
%TD*%
D10*
%TO.C,D31*%
X278000000Y-144000000D03*
X278000000Y-140700000D03*
%TD*%
D17*
%TO.C,REF\u002A\u002A*%
X228200000Y-155250000D03*
X228200000Y-152750000D03*
X227350000Y-155250000D03*
X227350000Y-152750000D03*
X226500000Y-155250000D03*
X226500000Y-152750000D03*
X225650000Y-155250000D03*
X225650000Y-152750000D03*
X224800000Y-155250000D03*
X224800000Y-152750000D03*
%TD*%
%TO.C,REF\u002A\u002A*%
X120700000Y-181250000D03*
X120700000Y-178750000D03*
X119850000Y-181250000D03*
X119850000Y-178750000D03*
X119000000Y-181250000D03*
X119000000Y-178750000D03*
X118150000Y-181250000D03*
X118150000Y-178750000D03*
X117300000Y-181250000D03*
X117300000Y-178750000D03*
%TD*%
M02*
