ISO-10303-21;
HEADER;
/* Generated by software containing ST-Developer
 * from STEP Tools, Inc. (www.steptools.com) 
 */

FILE_DESCRIPTION(
/* description */ (''),
/* implementation_level */ '2;1');

FILE_NAME(
/* name */ 'msk12c02.step',
/* time_stamp */ '2026-08-17T15:44:53-04:00',
/* author */ (''),
/* organization */ (''),
/* preprocessor_version */ 'ST-DEVELOPER v20.1',
/* originating_system */ 'Autodesk Translation Framework v15.8.0.0',
/* authorisation */ '');

FILE_SCHEMA (('AUTOMOTIVE_DESIGN { 1 0 10303 214 3 1 1 }'));
ENDSEC;

DATA;
#10=MECHANICAL_DESIGN_GEOMETRIC_PRESENTATION_REPRESENTATION('',(#13),#1415);
#11=SHAPE_REPRESENTATION_RELATIONSHIP('SRR','None',#1422,#12);
#12=ADVANCED_BREP_SHAPE_REPRESENTATION('',(#14),#1414);
#13=STYLED_ITEM('',(#1431),#14);
#14=MANIFOLD_SOLID_BREP('Body1',#843);
#15=FACE_BOUND('',#155,.T.);
#16=FACE_BOUND('',#158,.T.);
#17=FACE_BOUND('',#159,.T.);
#18=TOROIDAL_SURFACE('',#896,0.25,0.1);
#19=TOROIDAL_SURFACE('',#904,0.25,0.1);
#20=CYLINDRICAL_SURFACE('',#873,0.1);
#21=CYLINDRICAL_SURFACE('',#878,0.1);
#22=CYLINDRICAL_SURFACE('',#879,0.1);
#23=CYLINDRICAL_SURFACE('',#884,0.1);
#24=CYLINDRICAL_SURFACE('',#889,0.1);
#25=CYLINDRICAL_SURFACE('',#890,0.1);
#26=CYLINDRICAL_SURFACE('',#891,0.1);
#27=CYLINDRICAL_SURFACE('',#892,0.1);
#28=CYLINDRICAL_SURFACE('',#901,0.35);
#29=CYLINDRICAL_SURFACE('',#909,0.35);
#30=SPHERICAL_SURFACE('',#869,0.1);
#31=SPHERICAL_SURFACE('',#874,0.1);
#32=SPHERICAL_SURFACE('',#880,0.1);
#33=SPHERICAL_SURFACE('',#885,0.1);
#34=CIRCLE('',#861,0.1);
#35=CIRCLE('',#862,0.1);
#36=CIRCLE('',#867,0.1);
#37=CIRCLE('',#868,0.1);
#38=CIRCLE('',#870,0.1);
#39=CIRCLE('',#871,0.1);
#40=CIRCLE('',#872,0.1);
#41=CIRCLE('',#875,0.1);
#42=CIRCLE('',#876,0.1);
#43=CIRCLE('',#877,0.1);
#44=CIRCLE('',#881,0.1);
#45=CIRCLE('',#882,0.1);
#46=CIRCLE('',#883,0.1);
#47=CIRCLE('',#886,0.1);
#48=CIRCLE('',#887,0.1);
#49=CIRCLE('',#888,0.1);
#50=CIRCLE('',#897,0.25);
#51=CIRCLE('',#898,0.1);
#52=CIRCLE('',#899,0.35);
#53=CIRCLE('',#900,0.35);
#54=CIRCLE('',#902,0.35);
#55=CIRCLE('',#905,0.25);
#56=CIRCLE('',#906,0.1);
#57=CIRCLE('',#907,0.35);
#58=CIRCLE('',#908,0.35);
#59=CIRCLE('',#910,0.35);
#60=FACE_OUTER_BOUND('',#109,.T.);
#61=FACE_OUTER_BOUND('',#110,.T.);
#62=FACE_OUTER_BOUND('',#111,.T.);
#63=FACE_OUTER_BOUND('',#112,.T.);
#64=FACE_OUTER_BOUND('',#113,.T.);
#65=FACE_OUTER_BOUND('',#114,.T.);
#66=FACE_OUTER_BOUND('',#115,.T.);
#67=FACE_OUTER_BOUND('',#116,.T.);
#68=FACE_OUTER_BOUND('',#117,.T.);
#69=FACE_OUTER_BOUND('',#118,.T.);
#70=FACE_OUTER_BOUND('',#119,.T.);
#71=FACE_OUTER_BOUND('',#120,.T.);
#72=FACE_OUTER_BOUND('',#121,.T.);
#73=FACE_OUTER_BOUND('',#122,.T.);
#74=FACE_OUTER_BOUND('',#123,.T.);
#75=FACE_OUTER_BOUND('',#124,.T.);
#76=FACE_OUTER_BOUND('',#125,.T.);
#77=FACE_OUTER_BOUND('',#126,.T.);
#78=FACE_OUTER_BOUND('',#127,.T.);
#79=FACE_OUTER_BOUND('',#128,.T.);
#80=FACE_OUTER_BOUND('',#129,.T.);
#81=FACE_OUTER_BOUND('',#130,.T.);
#82=FACE_OUTER_BOUND('',#131,.T.);
#83=FACE_OUTER_BOUND('',#132,.T.);
#84=FACE_OUTER_BOUND('',#133,.T.);
#85=FACE_OUTER_BOUND('',#134,.T.);
#86=FACE_OUTER_BOUND('',#135,.T.);
#87=FACE_OUTER_BOUND('',#136,.T.);
#88=FACE_OUTER_BOUND('',#137,.T.);
#89=FACE_OUTER_BOUND('',#138,.T.);
#90=FACE_OUTER_BOUND('',#139,.T.);
#91=FACE_OUTER_BOUND('',#140,.T.);
#92=FACE_OUTER_BOUND('',#141,.T.);
#93=FACE_OUTER_BOUND('',#142,.T.);
#94=FACE_OUTER_BOUND('',#143,.T.);
#95=FACE_OUTER_BOUND('',#144,.T.);
#96=FACE_OUTER_BOUND('',#145,.T.);
#97=FACE_OUTER_BOUND('',#146,.T.);
#98=FACE_OUTER_BOUND('',#147,.T.);
#99=FACE_OUTER_BOUND('',#148,.T.);
#100=FACE_OUTER_BOUND('',#149,.T.);
#101=FACE_OUTER_BOUND('',#150,.T.);
#102=FACE_OUTER_BOUND('',#151,.T.);
#103=FACE_OUTER_BOUND('',#152,.T.);
#104=FACE_OUTER_BOUND('',#153,.T.);
#105=FACE_OUTER_BOUND('',#154,.T.);
#106=FACE_OUTER_BOUND('',#156,.T.);
#107=FACE_OUTER_BOUND('',#157,.T.);
#108=FACE_OUTER_BOUND('',#160,.T.);
#109=EDGE_LOOP('',(#529,#530,#531,#532));
#110=EDGE_LOOP('',(#533,#534,#535,#536));
#111=EDGE_LOOP('',(#537,#538,#539,#540));
#112=EDGE_LOOP('',(#541,#542,#543,#544,#545,#546));
#113=EDGE_LOOP('',(#547,#548,#549,#550));
#114=EDGE_LOOP('',(#551,#552,#553,#554));
#115=EDGE_LOOP('',(#555,#556,#557,#558));
#116=EDGE_LOOP('',(#559,#560,#561,#562,#563,#564));
#117=EDGE_LOOP('',(#565,#566,#567));
#118=EDGE_LOOP('',(#568,#569,#570,#571,#572));
#119=EDGE_LOOP('',(#573,#574,#575));
#120=EDGE_LOOP('',(#576,#577,#578,#579,#580));
#121=EDGE_LOOP('',(#581,#582,#583,#584));
#122=EDGE_LOOP('',(#585,#586,#587));
#123=EDGE_LOOP('',(#588,#589,#590,#591,#592));
#124=EDGE_LOOP('',(#593,#594,#595));
#125=EDGE_LOOP('',(#596,#597,#598,#599,#600));
#126=EDGE_LOOP('',(#601,#602,#603,#604));
#127=EDGE_LOOP('',(#605,#606,#607,#608));
#128=EDGE_LOOP('',(#609,#610,#611,#612));
#129=EDGE_LOOP('',(#613,#614,#615,#616));
#130=EDGE_LOOP('',(#617,#618,#619,#620));
#131=EDGE_LOOP('',(#621,#622,#623,#624));
#132=EDGE_LOOP('',(#625,#626,#627,#628,#629));
#133=EDGE_LOOP('',(#630,#631,#632,#633,#634));
#134=EDGE_LOOP('',(#635));
#135=EDGE_LOOP('',(#636,#637,#638,#639,#640));
#136=EDGE_LOOP('',(#641,#642,#643,#644,#645));
#137=EDGE_LOOP('',(#646));
#138=EDGE_LOOP('',(#647,#648,#649,#650));
#139=EDGE_LOOP('',(#651,#652,#653,#654));
#140=EDGE_LOOP('',(#655,#656,#657,#658));
#141=EDGE_LOOP('',(#659,#660,#661,#662));
#142=EDGE_LOOP('',(#663,#664,#665,#666));
#143=EDGE_LOOP('',(#667,#668,#669,#670));
#144=EDGE_LOOP('',(#671,#672,#673,#674));
#145=EDGE_LOOP('',(#675,#676,#677,#678));
#146=EDGE_LOOP('',(#679,#680,#681,#682));
#147=EDGE_LOOP('',(#683,#684,#685,#686));
#148=EDGE_LOOP('',(#687,#688,#689,#690));
#149=EDGE_LOOP('',(#691,#692,#693,#694));
#150=EDGE_LOOP('',(#695,#696,#697,#698,#699,#700,#701,#702));
#151=EDGE_LOOP('',(#703,#704,#705,#706,#707,#708,#709,#710));
#152=EDGE_LOOP('',(#711,#712,#713,#714));
#153=EDGE_LOOP('',(#715,#716,#717,#718));
#154=EDGE_LOOP('',(#719,#720,#721,#722,#723,#724,#725,#726));
#155=EDGE_LOOP('',(#727,#728,#729,#730,#731,#732,#733,#734));
#156=EDGE_LOOP('',(#735,#736,#737,#738,#739,#740,#741,#742));
#157=EDGE_LOOP('',(#743,#744,#745,#746,#747,#748,#749,#750,#751,#752,#753,
#754));
#158=EDGE_LOOP('',(#755));
#159=EDGE_LOOP('',(#756));
#160=EDGE_LOOP('',(#757,#758,#759,#760));
#161=LINE('',#1178,#251);
#162=LINE('',#1180,#252);
#163=LINE('',#1182,#253);
#164=LINE('',#1183,#254);
#165=LINE('',#1186,#255);
#166=LINE('',#1188,#256);
#167=LINE('',#1189,#257);
#168=LINE('',#1192,#258);
#169=LINE('',#1194,#259);
#170=LINE('',#1195,#260);
#171=LINE('',#1200,#261);
#172=LINE('',#1205,#262);
#173=LINE('',#1207,#263);
#174=LINE('',#1209,#264);
#175=LINE('',#1210,#265);
#176=LINE('',#1213,#266);
#177=LINE('',#1215,#267);
#178=LINE('',#1216,#268);
#179=LINE('',#1219,#269);
#180=LINE('',#1221,#270);
#181=LINE('',#1222,#271);
#182=LINE('',#1226,#272);
#183=LINE('',#1237,#273);
#184=LINE('',#1238,#274);
#185=LINE('',#1247,#275);
#186=LINE('',#1248,#276);
#187=LINE('',#1250,#277);
#188=LINE('',#1251,#278);
#189=LINE('',#1260,#279);
#190=LINE('',#1261,#280);
#191=LINE('',#1270,#281);
#192=LINE('',#1271,#282);
#193=LINE('',#1273,#283);
#194=LINE('',#1274,#284);
#195=LINE('',#1276,#285);
#196=LINE('',#1277,#286);
#197=LINE('',#1279,#287);
#198=LINE('',#1280,#288);
#199=LINE('',#1282,#289);
#200=LINE('',#1295,#290);
#201=LINE('',#1308,#291);
#202=LINE('',#1314,#292);
#203=LINE('',#1316,#293);
#204=LINE('',#1318,#294);
#205=LINE('',#1319,#295);
#206=LINE('',#1322,#296);
#207=LINE('',#1324,#297);
#208=LINE('',#1325,#298);
#209=LINE('',#1328,#299);
#210=LINE('',#1329,#300);
#211=LINE('',#1333,#301);
#212=LINE('',#1335,#302);
#213=LINE('',#1337,#303);
#214=LINE('',#1338,#304);
#215=LINE('',#1341,#305);
#216=LINE('',#1343,#306);
#217=LINE('',#1344,#307);
#218=LINE('',#1347,#308);
#219=LINE('',#1348,#309);
#220=LINE('',#1352,#310);
#221=LINE('',#1354,#311);
#222=LINE('',#1356,#312);
#223=LINE('',#1357,#313);
#224=LINE('',#1360,#314);
#225=LINE('',#1362,#315);
#226=LINE('',#1363,#316);
#227=LINE('',#1366,#317);
#228=LINE('',#1367,#318);
#229=LINE('',#1371,#319);
#230=LINE('',#1373,#320);
#231=LINE('',#1375,#321);
#232=LINE('',#1376,#322);
#233=LINE('',#1379,#323);
#234=LINE('',#1381,#324);
#235=LINE('',#1382,#325);
#236=LINE('',#1385,#326);
#237=LINE('',#1386,#327);
#238=LINE('',#1389,#328);
#239=LINE('',#1391,#329);
#240=LINE('',#1392,#330);
#241=LINE('',#1393,#331);
#242=LINE('',#1396,#332);
#243=LINE('',#1398,#333);
#244=LINE('',#1399,#334);
#245=LINE('',#1400,#335);
#246=LINE('',#1403,#336);
#247=LINE('',#1405,#337);
#248=LINE('',#1406,#338);
#249=LINE('',#1408,#339);
#250=LINE('',#1409,#340);
#251=VECTOR('',#936,10.);
#252=VECTOR('',#937,10.);
#253=VECTOR('',#938,10.);
#254=VECTOR('',#939,10.);
#255=VECTOR('',#942,10.);
#256=VECTOR('',#943,10.);
#257=VECTOR('',#944,10.);
#258=VECTOR('',#947,10.);
#259=VECTOR('',#948,10.);
#260=VECTOR('',#949,10.);
#261=VECTOR('',#954,10.);
#262=VECTOR('',#959,10.);
#263=VECTOR('',#960,10.);
#264=VECTOR('',#961,10.);
#265=VECTOR('',#962,10.);
#266=VECTOR('',#965,10.);
#267=VECTOR('',#966,10.);
#268=VECTOR('',#967,10.);
#269=VECTOR('',#970,10.);
#270=VECTOR('',#971,10.);
#271=VECTOR('',#972,10.);
#272=VECTOR('',#975,10.);
#273=VECTOR('',#990,10.);
#274=VECTOR('',#991,10.);
#275=VECTOR('',#1002,10.);
#276=VECTOR('',#1003,10.);
#277=VECTOR('',#1006,10.);
#278=VECTOR('',#1007,10.);
#279=VECTOR('',#1018,10.);
#280=VECTOR('',#1019,10.);
#281=VECTOR('',#1030,10.);
#282=VECTOR('',#1031,10.);
#283=VECTOR('',#1034,10.);
#284=VECTOR('',#1035,10.);
#285=VECTOR('',#1038,10.);
#286=VECTOR('',#1039,10.);
#287=VECTOR('',#1042,10.);
#288=VECTOR('',#1043,10.);
#289=VECTOR('',#1046,10.);
#290=VECTOR('',#1063,0.35);
#291=VECTOR('',#1080,0.35);
#292=VECTOR('',#1087,10.);
#293=VECTOR('',#1088,10.);
#294=VECTOR('',#1089,10.);
#295=VECTOR('',#1090,10.);
#296=VECTOR('',#1093,10.);
#297=VECTOR('',#1094,10.);
#298=VECTOR('',#1095,10.);
#299=VECTOR('',#1098,10.);
#300=VECTOR('',#1099,10.);
#301=VECTOR('',#1102,10.);
#302=VECTOR('',#1103,10.);
#303=VECTOR('',#1104,10.);
#304=VECTOR('',#1105,10.);
#305=VECTOR('',#1108,10.);
#306=VECTOR('',#1109,10.);
#307=VECTOR('',#1110,10.);
#308=VECTOR('',#1113,10.);
#309=VECTOR('',#1114,10.);
#310=VECTOR('',#1117,10.);
#311=VECTOR('',#1118,10.);
#312=VECTOR('',#1119,10.);
#313=VECTOR('',#1120,10.);
#314=VECTOR('',#1123,10.);
#315=VECTOR('',#1124,10.);
#316=VECTOR('',#1125,10.);
#317=VECTOR('',#1128,10.);
#318=VECTOR('',#1129,10.);
#319=VECTOR('',#1132,10.);
#320=VECTOR('',#1133,10.);
#321=VECTOR('',#1134,10.);
#322=VECTOR('',#1135,10.);
#323=VECTOR('',#1138,10.);
#324=VECTOR('',#1139,10.);
#325=VECTOR('',#1140,10.);
#326=VECTOR('',#1143,10.);
#327=VECTOR('',#1144,10.);
#328=VECTOR('',#1147,10.);
#329=VECTOR('',#1148,10.);
#330=VECTOR('',#1149,10.);
#331=VECTOR('',#1150,10.);
#332=VECTOR('',#1153,10.);
#333=VECTOR('',#1154,10.);
#334=VECTOR('',#1155,10.);
#335=VECTOR('',#1156,10.);
#336=VECTOR('',#1161,10.);
#337=VECTOR('',#1164,10.);
#338=VECTOR('',#1165,10.);
#339=VECTOR('',#1168,10.);
#340=VECTOR('',#1169,10.);
#341=VERTEX_POINT('',#1176);
#342=VERTEX_POINT('',#1177);
#343=VERTEX_POINT('',#1179);
#344=VERTEX_POINT('',#1181);
#345=VERTEX_POINT('',#1185);
#346=VERTEX_POINT('',#1187);
#347=VERTEX_POINT('',#1191);
#348=VERTEX_POINT('',#1193);
#349=VERTEX_POINT('',#1197);
#350=VERTEX_POINT('',#1199);
#351=VERTEX_POINT('',#1203);
#352=VERTEX_POINT('',#1204);
#353=VERTEX_POINT('',#1206);
#354=VERTEX_POINT('',#1208);
#355=VERTEX_POINT('',#1212);
#356=VERTEX_POINT('',#1214);
#357=VERTEX_POINT('',#1218);
#358=VERTEX_POINT('',#1220);
#359=VERTEX_POINT('',#1224);
#360=VERTEX_POINT('',#1225);
#361=VERTEX_POINT('',#1230);
#362=VERTEX_POINT('',#1231);
#363=VERTEX_POINT('',#1233);
#364=VERTEX_POINT('',#1240);
#365=VERTEX_POINT('',#1241);
#366=VERTEX_POINT('',#1243);
#367=VERTEX_POINT('',#1253);
#368=VERTEX_POINT('',#1254);
#369=VERTEX_POINT('',#1256);
#370=VERTEX_POINT('',#1263);
#371=VERTEX_POINT('',#1264);
#372=VERTEX_POINT('',#1266);
#373=VERTEX_POINT('',#1286);
#374=VERTEX_POINT('',#1288);
#375=VERTEX_POINT('',#1290);
#376=VERTEX_POINT('',#1294);
#377=VERTEX_POINT('',#1299);
#378=VERTEX_POINT('',#1301);
#379=VERTEX_POINT('',#1303);
#380=VERTEX_POINT('',#1307);
#381=VERTEX_POINT('',#1312);
#382=VERTEX_POINT('',#1313);
#383=VERTEX_POINT('',#1315);
#384=VERTEX_POINT('',#1317);
#385=VERTEX_POINT('',#1321);
#386=VERTEX_POINT('',#1323);
#387=VERTEX_POINT('',#1327);
#388=VERTEX_POINT('',#1331);
#389=VERTEX_POINT('',#1332);
#390=VERTEX_POINT('',#1334);
#391=VERTEX_POINT('',#1336);
#392=VERTEX_POINT('',#1340);
#393=VERTEX_POINT('',#1342);
#394=VERTEX_POINT('',#1346);
#395=VERTEX_POINT('',#1350);
#396=VERTEX_POINT('',#1351);
#397=VERTEX_POINT('',#1353);
#398=VERTEX_POINT('',#1355);
#399=VERTEX_POINT('',#1359);
#400=VERTEX_POINT('',#1361);
#401=VERTEX_POINT('',#1365);
#402=VERTEX_POINT('',#1369);
#403=VERTEX_POINT('',#1370);
#404=VERTEX_POINT('',#1372);
#405=VERTEX_POINT('',#1374);
#406=VERTEX_POINT('',#1378);
#407=VERTEX_POINT('',#1380);
#408=VERTEX_POINT('',#1384);
#409=VERTEX_POINT('',#1388);
#410=VERTEX_POINT('',#1390);
#411=VERTEX_POINT('',#1395);
#412=VERTEX_POINT('',#1397);
#413=EDGE_CURVE('',#341,#342,#161,.T.);
#414=EDGE_CURVE('',#341,#343,#162,.T.);
#415=EDGE_CURVE('',#343,#344,#163,.T.);
#416=EDGE_CURVE('',#342,#344,#164,.T.);
#417=EDGE_CURVE('',#345,#341,#165,.T.);
#418=EDGE_CURVE('',#345,#346,#166,.T.);
#419=EDGE_CURVE('',#346,#343,#167,.T.);
#420=EDGE_CURVE('',#347,#345,#168,.T.);
#421=EDGE_CURVE('',#347,#348,#169,.T.);
#422=EDGE_CURVE('',#348,#346,#170,.T.);
#423=EDGE_CURVE('',#349,#348,#34,.T.);
#424=EDGE_CURVE('',#350,#349,#171,.T.);
#425=EDGE_CURVE('',#344,#350,#35,.T.);
#426=EDGE_CURVE('',#351,#352,#172,.T.);
#427=EDGE_CURVE('',#351,#353,#173,.T.);
#428=EDGE_CURVE('',#353,#354,#174,.T.);
#429=EDGE_CURVE('',#352,#354,#175,.T.);
#430=EDGE_CURVE('',#355,#351,#176,.T.);
#431=EDGE_CURVE('',#355,#356,#177,.T.);
#432=EDGE_CURVE('',#356,#353,#178,.T.);
#433=EDGE_CURVE('',#357,#355,#179,.T.);
#434=EDGE_CURVE('',#357,#358,#180,.T.);
#435=EDGE_CURVE('',#358,#356,#181,.T.);
#436=EDGE_CURVE('',#359,#360,#182,.T.);
#437=EDGE_CURVE('',#354,#359,#36,.T.);
#438=EDGE_CURVE('',#360,#358,#37,.T.);
#439=EDGE_CURVE('',#361,#362,#38,.F.);
#440=EDGE_CURVE('',#363,#361,#39,.F.);
#441=EDGE_CURVE('',#362,#363,#40,.F.);
#442=EDGE_CURVE('',#359,#363,#183,.T.);
#443=EDGE_CURVE('',#361,#352,#184,.T.);
#444=EDGE_CURVE('',#364,#365,#41,.F.);
#445=EDGE_CURVE('',#366,#364,#42,.F.);
#446=EDGE_CURVE('',#365,#366,#43,.F.);
#447=EDGE_CURVE('',#347,#366,#185,.T.);
#448=EDGE_CURVE('',#364,#349,#186,.T.);
#449=EDGE_CURVE('',#362,#365,#187,.T.);
#450=EDGE_CURVE('',#366,#361,#188,.T.);
#451=EDGE_CURVE('',#367,#368,#44,.F.);
#452=EDGE_CURVE('',#369,#367,#45,.F.);
#453=EDGE_CURVE('',#368,#369,#46,.F.);
#454=EDGE_CURVE('',#357,#369,#189,.T.);
#455=EDGE_CURVE('',#367,#360,#190,.T.);
#456=EDGE_CURVE('',#370,#371,#47,.F.);
#457=EDGE_CURVE('',#372,#370,#48,.F.);
#458=EDGE_CURVE('',#371,#372,#49,.F.);
#459=EDGE_CURVE('',#350,#372,#191,.T.);
#460=EDGE_CURVE('',#370,#342,#192,.T.);
#461=EDGE_CURVE('',#365,#371,#193,.T.);
#462=EDGE_CURVE('',#372,#364,#194,.T.);
#463=EDGE_CURVE('',#371,#368,#195,.T.);
#464=EDGE_CURVE('',#369,#370,#196,.T.);
#465=EDGE_CURVE('',#368,#362,#197,.T.);
#466=EDGE_CURVE('',#363,#367,#198,.T.);
#467=EDGE_CURVE('',#352,#347,#199,.T.);
#468=EDGE_CURVE('',#373,#373,#50,.T.);
#469=EDGE_CURVE('',#373,#374,#51,.T.);
#470=EDGE_CURVE('',#374,#375,#52,.T.);
#471=EDGE_CURVE('',#375,#374,#53,.T.);
#472=EDGE_CURVE('',#375,#376,#200,.T.);
#473=EDGE_CURVE('',#376,#376,#54,.T.);
#474=EDGE_CURVE('',#377,#377,#55,.T.);
#475=EDGE_CURVE('',#377,#378,#56,.T.);
#476=EDGE_CURVE('',#378,#379,#57,.T.);
#477=EDGE_CURVE('',#379,#378,#58,.T.);
#478=EDGE_CURVE('',#379,#380,#201,.T.);
#479=EDGE_CURVE('',#380,#380,#59,.T.);
#480=EDGE_CURVE('',#381,#382,#202,.T.);
#481=EDGE_CURVE('',#381,#383,#203,.T.);
#482=EDGE_CURVE('',#384,#383,#204,.T.);
#483=EDGE_CURVE('',#382,#384,#205,.T.);
#484=EDGE_CURVE('',#382,#385,#206,.T.);
#485=EDGE_CURVE('',#386,#384,#207,.T.);
#486=EDGE_CURVE('',#385,#386,#208,.T.);
#487=EDGE_CURVE('',#383,#387,#209,.T.);
#488=EDGE_CURVE('',#386,#387,#210,.T.);
#489=EDGE_CURVE('',#388,#389,#211,.T.);
#490=EDGE_CURVE('',#388,#390,#212,.T.);
#491=EDGE_CURVE('',#391,#390,#213,.T.);
#492=EDGE_CURVE('',#389,#391,#214,.T.);
#493=EDGE_CURVE('',#389,#392,#215,.T.);
#494=EDGE_CURVE('',#393,#391,#216,.T.);
#495=EDGE_CURVE('',#392,#393,#217,.T.);
#496=EDGE_CURVE('',#390,#394,#218,.T.);
#497=EDGE_CURVE('',#393,#394,#219,.T.);
#498=EDGE_CURVE('',#395,#396,#220,.T.);
#499=EDGE_CURVE('',#397,#395,#221,.T.);
#500=EDGE_CURVE('',#398,#397,#222,.T.);
#501=EDGE_CURVE('',#396,#398,#223,.T.);
#502=EDGE_CURVE('',#396,#399,#224,.T.);
#503=EDGE_CURVE('',#400,#398,#225,.T.);
#504=EDGE_CURVE('',#399,#400,#226,.T.);
#505=EDGE_CURVE('',#401,#397,#227,.T.);
#506=EDGE_CURVE('',#401,#400,#228,.T.);
#507=EDGE_CURVE('',#402,#403,#229,.T.);
#508=EDGE_CURVE('',#404,#402,#230,.T.);
#509=EDGE_CURVE('',#405,#404,#231,.T.);
#510=EDGE_CURVE('',#403,#405,#232,.T.);
#511=EDGE_CURVE('',#403,#406,#233,.T.);
#512=EDGE_CURVE('',#407,#405,#234,.T.);
#513=EDGE_CURVE('',#406,#407,#235,.T.);
#514=EDGE_CURVE('',#408,#404,#236,.T.);
#515=EDGE_CURVE('',#408,#407,#237,.T.);
#516=EDGE_CURVE('',#387,#409,#238,.T.);
#517=EDGE_CURVE('',#410,#409,#239,.T.);
#518=EDGE_CURVE('',#401,#410,#240,.T.);
#519=EDGE_CURVE('',#385,#395,#241,.T.);
#520=EDGE_CURVE('',#394,#411,#242,.T.);
#521=EDGE_CURVE('',#412,#411,#243,.T.);
#522=EDGE_CURVE('',#408,#412,#244,.T.);
#523=EDGE_CURVE('',#392,#402,#245,.T.);
#524=EDGE_CURVE('',#342,#357,#246,.T.);
#525=EDGE_CURVE('',#399,#388,#247,.T.);
#526=EDGE_CURVE('',#411,#410,#248,.T.);
#527=EDGE_CURVE('',#406,#381,#249,.T.);
#528=EDGE_CURVE('',#409,#412,#250,.T.);
#529=ORIENTED_EDGE('',*,*,#413,.F.);
#530=ORIENTED_EDGE('',*,*,#414,.T.);
#531=ORIENTED_EDGE('',*,*,#415,.T.);
#532=ORIENTED_EDGE('',*,*,#416,.F.);
#533=ORIENTED_EDGE('',*,*,#417,.F.);
#534=ORIENTED_EDGE('',*,*,#418,.T.);
#535=ORIENTED_EDGE('',*,*,#419,.T.);
#536=ORIENTED_EDGE('',*,*,#414,.F.);
#537=ORIENTED_EDGE('',*,*,#420,.F.);
#538=ORIENTED_EDGE('',*,*,#421,.T.);
#539=ORIENTED_EDGE('',*,*,#422,.T.);
#540=ORIENTED_EDGE('',*,*,#418,.F.);
#541=ORIENTED_EDGE('',*,*,#423,.F.);
#542=ORIENTED_EDGE('',*,*,#424,.F.);
#543=ORIENTED_EDGE('',*,*,#425,.F.);
#544=ORIENTED_EDGE('',*,*,#415,.F.);
#545=ORIENTED_EDGE('',*,*,#419,.F.);
#546=ORIENTED_EDGE('',*,*,#422,.F.);
#547=ORIENTED_EDGE('',*,*,#426,.F.);
#548=ORIENTED_EDGE('',*,*,#427,.T.);
#549=ORIENTED_EDGE('',*,*,#428,.T.);
#550=ORIENTED_EDGE('',*,*,#429,.F.);
#551=ORIENTED_EDGE('',*,*,#430,.F.);
#552=ORIENTED_EDGE('',*,*,#431,.T.);
#553=ORIENTED_EDGE('',*,*,#432,.T.);
#554=ORIENTED_EDGE('',*,*,#427,.F.);
#555=ORIENTED_EDGE('',*,*,#433,.F.);
#556=ORIENTED_EDGE('',*,*,#434,.T.);
#557=ORIENTED_EDGE('',*,*,#435,.T.);
#558=ORIENTED_EDGE('',*,*,#431,.F.);
#559=ORIENTED_EDGE('',*,*,#436,.F.);
#560=ORIENTED_EDGE('',*,*,#437,.F.);
#561=ORIENTED_EDGE('',*,*,#428,.F.);
#562=ORIENTED_EDGE('',*,*,#432,.F.);
#563=ORIENTED_EDGE('',*,*,#435,.F.);
#564=ORIENTED_EDGE('',*,*,#438,.F.);
#565=ORIENTED_EDGE('',*,*,#439,.F.);
#566=ORIENTED_EDGE('',*,*,#440,.F.);
#567=ORIENTED_EDGE('',*,*,#441,.F.);
#568=ORIENTED_EDGE('',*,*,#442,.T.);
#569=ORIENTED_EDGE('',*,*,#440,.T.);
#570=ORIENTED_EDGE('',*,*,#443,.T.);
#571=ORIENTED_EDGE('',*,*,#429,.T.);
#572=ORIENTED_EDGE('',*,*,#437,.T.);
#573=ORIENTED_EDGE('',*,*,#444,.F.);
#574=ORIENTED_EDGE('',*,*,#445,.F.);
#575=ORIENTED_EDGE('',*,*,#446,.F.);
#576=ORIENTED_EDGE('',*,*,#447,.T.);
#577=ORIENTED_EDGE('',*,*,#445,.T.);
#578=ORIENTED_EDGE('',*,*,#448,.T.);
#579=ORIENTED_EDGE('',*,*,#423,.T.);
#580=ORIENTED_EDGE('',*,*,#421,.F.);
#581=ORIENTED_EDGE('',*,*,#439,.T.);
#582=ORIENTED_EDGE('',*,*,#449,.T.);
#583=ORIENTED_EDGE('',*,*,#446,.T.);
#584=ORIENTED_EDGE('',*,*,#450,.T.);
#585=ORIENTED_EDGE('',*,*,#451,.F.);
#586=ORIENTED_EDGE('',*,*,#452,.F.);
#587=ORIENTED_EDGE('',*,*,#453,.F.);
#588=ORIENTED_EDGE('',*,*,#454,.T.);
#589=ORIENTED_EDGE('',*,*,#452,.T.);
#590=ORIENTED_EDGE('',*,*,#455,.T.);
#591=ORIENTED_EDGE('',*,*,#438,.T.);
#592=ORIENTED_EDGE('',*,*,#434,.F.);
#593=ORIENTED_EDGE('',*,*,#456,.F.);
#594=ORIENTED_EDGE('',*,*,#457,.F.);
#595=ORIENTED_EDGE('',*,*,#458,.F.);
#596=ORIENTED_EDGE('',*,*,#459,.T.);
#597=ORIENTED_EDGE('',*,*,#457,.T.);
#598=ORIENTED_EDGE('',*,*,#460,.T.);
#599=ORIENTED_EDGE('',*,*,#416,.T.);
#600=ORIENTED_EDGE('',*,*,#425,.T.);
#601=ORIENTED_EDGE('',*,*,#444,.T.);
#602=ORIENTED_EDGE('',*,*,#461,.T.);
#603=ORIENTED_EDGE('',*,*,#458,.T.);
#604=ORIENTED_EDGE('',*,*,#462,.T.);
#605=ORIENTED_EDGE('',*,*,#456,.T.);
#606=ORIENTED_EDGE('',*,*,#463,.T.);
#607=ORIENTED_EDGE('',*,*,#453,.T.);
#608=ORIENTED_EDGE('',*,*,#464,.T.);
#609=ORIENTED_EDGE('',*,*,#451,.T.);
#610=ORIENTED_EDGE('',*,*,#465,.T.);
#611=ORIENTED_EDGE('',*,*,#441,.T.);
#612=ORIENTED_EDGE('',*,*,#466,.T.);
#613=ORIENTED_EDGE('',*,*,#443,.F.);
#614=ORIENTED_EDGE('',*,*,#450,.F.);
#615=ORIENTED_EDGE('',*,*,#447,.F.);
#616=ORIENTED_EDGE('',*,*,#467,.F.);
#617=ORIENTED_EDGE('',*,*,#448,.F.);
#618=ORIENTED_EDGE('',*,*,#462,.F.);
#619=ORIENTED_EDGE('',*,*,#459,.F.);
#620=ORIENTED_EDGE('',*,*,#424,.T.);
#621=ORIENTED_EDGE('',*,*,#449,.F.);
#622=ORIENTED_EDGE('',*,*,#465,.F.);
#623=ORIENTED_EDGE('',*,*,#463,.F.);
#624=ORIENTED_EDGE('',*,*,#461,.F.);
#625=ORIENTED_EDGE('',*,*,#468,.T.);
#626=ORIENTED_EDGE('',*,*,#469,.T.);
#627=ORIENTED_EDGE('',*,*,#470,.T.);
#628=ORIENTED_EDGE('',*,*,#471,.T.);
#629=ORIENTED_EDGE('',*,*,#469,.F.);
#630=ORIENTED_EDGE('',*,*,#471,.F.);
#631=ORIENTED_EDGE('',*,*,#472,.T.);
#632=ORIENTED_EDGE('',*,*,#473,.F.);
#633=ORIENTED_EDGE('',*,*,#472,.F.);
#634=ORIENTED_EDGE('',*,*,#470,.F.);
#635=ORIENTED_EDGE('',*,*,#468,.F.);
#636=ORIENTED_EDGE('',*,*,#474,.T.);
#637=ORIENTED_EDGE('',*,*,#475,.T.);
#638=ORIENTED_EDGE('',*,*,#476,.T.);
#639=ORIENTED_EDGE('',*,*,#477,.T.);
#640=ORIENTED_EDGE('',*,*,#475,.F.);
#641=ORIENTED_EDGE('',*,*,#477,.F.);
#642=ORIENTED_EDGE('',*,*,#478,.T.);
#643=ORIENTED_EDGE('',*,*,#479,.F.);
#644=ORIENTED_EDGE('',*,*,#478,.F.);
#645=ORIENTED_EDGE('',*,*,#476,.F.);
#646=ORIENTED_EDGE('',*,*,#474,.F.);
#647=ORIENTED_EDGE('',*,*,#480,.F.);
#648=ORIENTED_EDGE('',*,*,#481,.T.);
#649=ORIENTED_EDGE('',*,*,#482,.F.);
#650=ORIENTED_EDGE('',*,*,#483,.F.);
#651=ORIENTED_EDGE('',*,*,#484,.F.);
#652=ORIENTED_EDGE('',*,*,#483,.T.);
#653=ORIENTED_EDGE('',*,*,#485,.F.);
#654=ORIENTED_EDGE('',*,*,#486,.F.);
#655=ORIENTED_EDGE('',*,*,#487,.T.);
#656=ORIENTED_EDGE('',*,*,#488,.F.);
#657=ORIENTED_EDGE('',*,*,#485,.T.);
#658=ORIENTED_EDGE('',*,*,#482,.T.);
#659=ORIENTED_EDGE('',*,*,#489,.F.);
#660=ORIENTED_EDGE('',*,*,#490,.T.);
#661=ORIENTED_EDGE('',*,*,#491,.F.);
#662=ORIENTED_EDGE('',*,*,#492,.F.);
#663=ORIENTED_EDGE('',*,*,#493,.F.);
#664=ORIENTED_EDGE('',*,*,#492,.T.);
#665=ORIENTED_EDGE('',*,*,#494,.F.);
#666=ORIENTED_EDGE('',*,*,#495,.F.);
#667=ORIENTED_EDGE('',*,*,#496,.T.);
#668=ORIENTED_EDGE('',*,*,#497,.F.);
#669=ORIENTED_EDGE('',*,*,#494,.T.);
#670=ORIENTED_EDGE('',*,*,#491,.T.);
#671=ORIENTED_EDGE('',*,*,#498,.F.);
#672=ORIENTED_EDGE('',*,*,#499,.F.);
#673=ORIENTED_EDGE('',*,*,#500,.F.);
#674=ORIENTED_EDGE('',*,*,#501,.F.);
#675=ORIENTED_EDGE('',*,*,#502,.F.);
#676=ORIENTED_EDGE('',*,*,#501,.T.);
#677=ORIENTED_EDGE('',*,*,#503,.F.);
#678=ORIENTED_EDGE('',*,*,#504,.F.);
#679=ORIENTED_EDGE('',*,*,#505,.F.);
#680=ORIENTED_EDGE('',*,*,#506,.T.);
#681=ORIENTED_EDGE('',*,*,#503,.T.);
#682=ORIENTED_EDGE('',*,*,#500,.T.);
#683=ORIENTED_EDGE('',*,*,#507,.F.);
#684=ORIENTED_EDGE('',*,*,#508,.F.);
#685=ORIENTED_EDGE('',*,*,#509,.F.);
#686=ORIENTED_EDGE('',*,*,#510,.F.);
#687=ORIENTED_EDGE('',*,*,#511,.F.);
#688=ORIENTED_EDGE('',*,*,#510,.T.);
#689=ORIENTED_EDGE('',*,*,#512,.F.);
#690=ORIENTED_EDGE('',*,*,#513,.F.);
#691=ORIENTED_EDGE('',*,*,#514,.F.);
#692=ORIENTED_EDGE('',*,*,#515,.T.);
#693=ORIENTED_EDGE('',*,*,#512,.T.);
#694=ORIENTED_EDGE('',*,*,#509,.T.);
#695=ORIENTED_EDGE('',*,*,#486,.T.);
#696=ORIENTED_EDGE('',*,*,#488,.T.);
#697=ORIENTED_EDGE('',*,*,#516,.T.);
#698=ORIENTED_EDGE('',*,*,#517,.F.);
#699=ORIENTED_EDGE('',*,*,#518,.F.);
#700=ORIENTED_EDGE('',*,*,#505,.T.);
#701=ORIENTED_EDGE('',*,*,#499,.T.);
#702=ORIENTED_EDGE('',*,*,#519,.F.);
#703=ORIENTED_EDGE('',*,*,#495,.T.);
#704=ORIENTED_EDGE('',*,*,#497,.T.);
#705=ORIENTED_EDGE('',*,*,#520,.T.);
#706=ORIENTED_EDGE('',*,*,#521,.F.);
#707=ORIENTED_EDGE('',*,*,#522,.F.);
#708=ORIENTED_EDGE('',*,*,#514,.T.);
#709=ORIENTED_EDGE('',*,*,#508,.T.);
#710=ORIENTED_EDGE('',*,*,#523,.F.);
#711=ORIENTED_EDGE('',*,*,#442,.F.);
#712=ORIENTED_EDGE('',*,*,#436,.T.);
#713=ORIENTED_EDGE('',*,*,#455,.F.);
#714=ORIENTED_EDGE('',*,*,#466,.F.);
#715=ORIENTED_EDGE('',*,*,#454,.F.);
#716=ORIENTED_EDGE('',*,*,#524,.F.);
#717=ORIENTED_EDGE('',*,*,#460,.F.);
#718=ORIENTED_EDGE('',*,*,#464,.F.);
#719=ORIENTED_EDGE('',*,*,#525,.F.);
#720=ORIENTED_EDGE('',*,*,#504,.T.);
#721=ORIENTED_EDGE('',*,*,#506,.F.);
#722=ORIENTED_EDGE('',*,*,#518,.T.);
#723=ORIENTED_EDGE('',*,*,#526,.F.);
#724=ORIENTED_EDGE('',*,*,#520,.F.);
#725=ORIENTED_EDGE('',*,*,#496,.F.);
#726=ORIENTED_EDGE('',*,*,#490,.F.);
#727=ORIENTED_EDGE('',*,*,#413,.T.);
#728=ORIENTED_EDGE('',*,*,#524,.T.);
#729=ORIENTED_EDGE('',*,*,#433,.T.);
#730=ORIENTED_EDGE('',*,*,#430,.T.);
#731=ORIENTED_EDGE('',*,*,#426,.T.);
#732=ORIENTED_EDGE('',*,*,#467,.T.);
#733=ORIENTED_EDGE('',*,*,#420,.T.);
#734=ORIENTED_EDGE('',*,*,#417,.T.);
#735=ORIENTED_EDGE('',*,*,#527,.F.);
#736=ORIENTED_EDGE('',*,*,#513,.T.);
#737=ORIENTED_EDGE('',*,*,#515,.F.);
#738=ORIENTED_EDGE('',*,*,#522,.T.);
#739=ORIENTED_EDGE('',*,*,#528,.F.);
#740=ORIENTED_EDGE('',*,*,#516,.F.);
#741=ORIENTED_EDGE('',*,*,#487,.F.);
#742=ORIENTED_EDGE('',*,*,#481,.F.);
#743=ORIENTED_EDGE('',*,*,#527,.T.);
#744=ORIENTED_EDGE('',*,*,#480,.T.);
#745=ORIENTED_EDGE('',*,*,#484,.T.);
#746=ORIENTED_EDGE('',*,*,#519,.T.);
#747=ORIENTED_EDGE('',*,*,#498,.T.);
#748=ORIENTED_EDGE('',*,*,#502,.T.);
#749=ORIENTED_EDGE('',*,*,#525,.T.);
#750=ORIENTED_EDGE('',*,*,#489,.T.);
#751=ORIENTED_EDGE('',*,*,#493,.T.);
#752=ORIENTED_EDGE('',*,*,#523,.T.);
#753=ORIENTED_EDGE('',*,*,#507,.T.);
#754=ORIENTED_EDGE('',*,*,#511,.T.);
#755=ORIENTED_EDGE('',*,*,#479,.T.);
#756=ORIENTED_EDGE('',*,*,#473,.T.);
#757=ORIENTED_EDGE('',*,*,#528,.T.);
#758=ORIENTED_EDGE('',*,*,#521,.T.);
#759=ORIENTED_EDGE('',*,*,#526,.T.);
#760=ORIENTED_EDGE('',*,*,#517,.T.);
#761=PLANE('',#857);
#762=PLANE('',#858);
#763=PLANE('',#859);
#764=PLANE('',#860);
#765=PLANE('',#863);
#766=PLANE('',#864);
#767=PLANE('',#865);
#768=PLANE('',#866);
#769=PLANE('',#893);
#770=PLANE('',#894);
#771=PLANE('',#895);
#772=PLANE('',#903);
#773=PLANE('',#911);
#774=PLANE('',#912);
#775=PLANE('',#913);
#776=PLANE('',#914);
#777=PLANE('',#915);
#778=PLANE('',#916);
#779=PLANE('',#917);
#780=PLANE('',#918);
#781=PLANE('',#919);
#782=PLANE('',#920);
#783=PLANE('',#921);
#784=PLANE('',#922);
#785=PLANE('',#923);
#786=PLANE('',#924);
#787=PLANE('',#925);
#788=PLANE('',#926);
#789=PLANE('',#927);
#790=PLANE('',#928);
#791=PLANE('',#929);
#792=PLANE('',#930);
#793=PLANE('',#931);
#794=ADVANCED_FACE('',(#60),#761,.F.);
#795=ADVANCED_FACE('',(#61),#762,.F.);
#796=ADVANCED_FACE('',(#62),#763,.F.);
#797=ADVANCED_FACE('',(#63),#764,.T.);
#798=ADVANCED_FACE('',(#64),#765,.F.);
#799=ADVANCED_FACE('',(#65),#766,.F.);
#800=ADVANCED_FACE('',(#66),#767,.F.);
#801=ADVANCED_FACE('',(#67),#768,.T.);
#802=ADVANCED_FACE('',(#68),#30,.T.);
#803=ADVANCED_FACE('',(#69),#20,.T.);
#804=ADVANCED_FACE('',(#70),#31,.T.);
#805=ADVANCED_FACE('',(#71),#21,.T.);
#806=ADVANCED_FACE('',(#72),#22,.T.);
#807=ADVANCED_FACE('',(#73),#32,.T.);
#808=ADVANCED_FACE('',(#74),#23,.T.);
#809=ADVANCED_FACE('',(#75),#33,.T.);
#810=ADVANCED_FACE('',(#76),#24,.T.);
#811=ADVANCED_FACE('',(#77),#25,.T.);
#812=ADVANCED_FACE('',(#78),#26,.T.);
#813=ADVANCED_FACE('',(#79),#27,.T.);
#814=ADVANCED_FACE('',(#80),#769,.T.);
#815=ADVANCED_FACE('',(#81),#770,.T.);
#816=ADVANCED_FACE('',(#82),#771,.T.);
#817=ADVANCED_FACE('',(#83),#18,.T.);
#818=ADVANCED_FACE('',(#84),#28,.T.);
#819=ADVANCED_FACE('',(#85),#772,.T.);
#820=ADVANCED_FACE('',(#86),#19,.T.);
#821=ADVANCED_FACE('',(#87),#29,.T.);
#822=ADVANCED_FACE('',(#88),#773,.T.);
#823=ADVANCED_FACE('',(#89),#774,.T.);
#824=ADVANCED_FACE('',(#90),#775,.T.);
#825=ADVANCED_FACE('',(#91),#776,.T.);
#826=ADVANCED_FACE('',(#92),#777,.T.);
#827=ADVANCED_FACE('',(#93),#778,.T.);
#828=ADVANCED_FACE('',(#94),#779,.T.);
#829=ADVANCED_FACE('',(#95),#780,.T.);
#830=ADVANCED_FACE('',(#96),#781,.T.);
#831=ADVANCED_FACE('',(#97),#782,.T.);
#832=ADVANCED_FACE('',(#98),#783,.T.);
#833=ADVANCED_FACE('',(#99),#784,.T.);
#834=ADVANCED_FACE('',(#100),#785,.T.);
#835=ADVANCED_FACE('',(#101),#786,.T.);
#836=ADVANCED_FACE('',(#102),#787,.T.);
#837=ADVANCED_FACE('',(#103),#788,.T.);
#838=ADVANCED_FACE('',(#104),#789,.T.);
#839=ADVANCED_FACE('',(#105,#15),#790,.T.);
#840=ADVANCED_FACE('',(#106),#791,.T.);
#841=ADVANCED_FACE('',(#107,#16,#17),#792,.F.);
#842=ADVANCED_FACE('',(#108),#793,.T.);
#843=CLOSED_SHELL('',(#794,#795,#796,#797,#798,#799,#800,#801,#802,#803,
#804,#805,#806,#807,#808,#809,#810,#811,#812,#813,#814,#815,#816,#817,#818,
#819,#820,#821,#822,#823,#824,#825,#826,#827,#828,#829,#830,#831,#832,#833,
#834,#835,#836,#837,#838,#839,#840,#841,#842));
#844=DERIVED_UNIT_ELEMENT(#846,1.);
#845=DERIVED_UNIT_ELEMENT(#1417,-3.);
#846=(
MASS_UNIT()
NAMED_UNIT(*)
SI_UNIT(.KILO.,.GRAM.)
);
#847=DERIVED_UNIT((#844,#845));
#848=MEASURE_REPRESENTATION_ITEM('density measure',
POSITIVE_RATIO_MEASURE(1000.),#847);
#849=PROPERTY_DEFINITION_REPRESENTATION(#854,#851);
#850=PROPERTY_DEFINITION_REPRESENTATION(#855,#852);
#851=REPRESENTATION('material name',(#853),#1414);
#852=REPRESENTATION('density',(#848),#1414);
#853=DESCRIPTIVE_REPRESENTATION_ITEM('Generic','Generic');
#854=PROPERTY_DEFINITION('material property','material name',#1424);
#855=PROPERTY_DEFINITION('material property','density of part',#1424);
#856=AXIS2_PLACEMENT_3D('',#1174,#932,#933);
#857=AXIS2_PLACEMENT_3D('',#1175,#934,#935);
#858=AXIS2_PLACEMENT_3D('',#1184,#940,#941);
#859=AXIS2_PLACEMENT_3D('',#1190,#945,#946);
#860=AXIS2_PLACEMENT_3D('',#1196,#950,#951);
#861=AXIS2_PLACEMENT_3D('',#1198,#952,#953);
#862=AXIS2_PLACEMENT_3D('',#1201,#955,#956);
#863=AXIS2_PLACEMENT_3D('',#1202,#957,#958);
#864=AXIS2_PLACEMENT_3D('',#1211,#963,#964);
#865=AXIS2_PLACEMENT_3D('',#1217,#968,#969);
#866=AXIS2_PLACEMENT_3D('',#1223,#973,#974);
#867=AXIS2_PLACEMENT_3D('',#1227,#976,#977);
#868=AXIS2_PLACEMENT_3D('',#1228,#978,#979);
#869=AXIS2_PLACEMENT_3D('',#1229,#980,#981);
#870=AXIS2_PLACEMENT_3D('',#1232,#982,#983);
#871=AXIS2_PLACEMENT_3D('',#1234,#984,#985);
#872=AXIS2_PLACEMENT_3D('',#1235,#986,#987);
#873=AXIS2_PLACEMENT_3D('',#1236,#988,#989);
#874=AXIS2_PLACEMENT_3D('',#1239,#992,#993);
#875=AXIS2_PLACEMENT_3D('',#1242,#994,#995);
#876=AXIS2_PLACEMENT_3D('',#1244,#996,#997);
#877=AXIS2_PLACEMENT_3D('',#1245,#998,#999);
#878=AXIS2_PLACEMENT_3D('',#1246,#1000,#1001);
#879=AXIS2_PLACEMENT_3D('',#1249,#1004,#1005);
#880=AXIS2_PLACEMENT_3D('',#1252,#1008,#1009);
#881=AXIS2_PLACEMENT_3D('',#1255,#1010,#1011);
#882=AXIS2_PLACEMENT_3D('',#1257,#1012,#1013);
#883=AXIS2_PLACEMENT_3D('',#1258,#1014,#1015);
#884=AXIS2_PLACEMENT_3D('',#1259,#1016,#1017);
#885=AXIS2_PLACEMENT_3D('',#1262,#1020,#1021);
#886=AXIS2_PLACEMENT_3D('',#1265,#1022,#1023);
#887=AXIS2_PLACEMENT_3D('',#1267,#1024,#1025);
#888=AXIS2_PLACEMENT_3D('',#1268,#1026,#1027);
#889=AXIS2_PLACEMENT_3D('',#1269,#1028,#1029);
#890=AXIS2_PLACEMENT_3D('',#1272,#1032,#1033);
#891=AXIS2_PLACEMENT_3D('',#1275,#1036,#1037);
#892=AXIS2_PLACEMENT_3D('',#1278,#1040,#1041);
#893=AXIS2_PLACEMENT_3D('',#1281,#1044,#1045);
#894=AXIS2_PLACEMENT_3D('',#1283,#1047,#1048);
#895=AXIS2_PLACEMENT_3D('',#1284,#1049,#1050);
#896=AXIS2_PLACEMENT_3D('',#1285,#1051,#1052);
#897=AXIS2_PLACEMENT_3D('',#1287,#1053,#1054);
#898=AXIS2_PLACEMENT_3D('',#1289,#1055,#1056);
#899=AXIS2_PLACEMENT_3D('',#1291,#1057,#1058);
#900=AXIS2_PLACEMENT_3D('',#1292,#1059,#1060);
#901=AXIS2_PLACEMENT_3D('',#1293,#1061,#1062);
#902=AXIS2_PLACEMENT_3D('',#1296,#1064,#1065);
#903=AXIS2_PLACEMENT_3D('',#1297,#1066,#1067);
#904=AXIS2_PLACEMENT_3D('',#1298,#1068,#1069);
#905=AXIS2_PLACEMENT_3D('',#1300,#1070,#1071);
#906=AXIS2_PLACEMENT_3D('',#1302,#1072,#1073);
#907=AXIS2_PLACEMENT_3D('',#1304,#1074,#1075);
#908=AXIS2_PLACEMENT_3D('',#1305,#1076,#1077);
#909=AXIS2_PLACEMENT_3D('',#1306,#1078,#1079);
#910=AXIS2_PLACEMENT_3D('',#1309,#1081,#1082);
#911=AXIS2_PLACEMENT_3D('',#1310,#1083,#1084);
#912=AXIS2_PLACEMENT_3D('',#1311,#1085,#1086);
#913=AXIS2_PLACEMENT_3D('',#1320,#1091,#1092);
#914=AXIS2_PLACEMENT_3D('',#1326,#1096,#1097);
#915=AXIS2_PLACEMENT_3D('',#1330,#1100,#1101);
#916=AXIS2_PLACEMENT_3D('',#1339,#1106,#1107);
#917=AXIS2_PLACEMENT_3D('',#1345,#1111,#1112);
#918=AXIS2_PLACEMENT_3D('',#1349,#1115,#1116);
#919=AXIS2_PLACEMENT_3D('',#1358,#1121,#1122);
#920=AXIS2_PLACEMENT_3D('',#1364,#1126,#1127);
#921=AXIS2_PLACEMENT_3D('',#1368,#1130,#1131);
#922=AXIS2_PLACEMENT_3D('',#1377,#1136,#1137);
#923=AXIS2_PLACEMENT_3D('',#1383,#1141,#1142);
#924=AXIS2_PLACEMENT_3D('',#1387,#1145,#1146);
#925=AXIS2_PLACEMENT_3D('',#1394,#1151,#1152);
#926=AXIS2_PLACEMENT_3D('',#1401,#1157,#1158);
#927=AXIS2_PLACEMENT_3D('',#1402,#1159,#1160);
#928=AXIS2_PLACEMENT_3D('',#1404,#1162,#1163);
#929=AXIS2_PLACEMENT_3D('',#1407,#1166,#1167);
#930=AXIS2_PLACEMENT_3D('',#1410,#1170,#1171);
#931=AXIS2_PLACEMENT_3D('',#1411,#1172,#1173);
#932=DIRECTION('axis',(0.,0.,1.));
#933=DIRECTION('refdir',(1.,0.,0.));
#934=DIRECTION('center_axis',(-1.85037170770859E-16,1.,0.));
#935=DIRECTION('ref_axis',(1.,1.85037170770859E-16,0.));
#936=DIRECTION('',(1.,1.85037170770859E-16,0.));
#937=DIRECTION('',(0.,0.,-1.));
#938=DIRECTION('',(1.,1.85037170770859E-16,0.));
#939=DIRECTION('',(0.,0.,-1.));
#940=DIRECTION('center_axis',(-1.,-4.2700885562506E-16,0.));
#941=DIRECTION('ref_axis',(-4.2700885562506E-16,1.,0.));
#942=DIRECTION('',(-4.2700885562506E-16,1.,0.));
#943=DIRECTION('',(0.,0.,-1.));
#944=DIRECTION('',(-4.2700885562506E-16,1.,0.));
#945=DIRECTION('center_axis',(1.85037170770859E-16,-1.,0.));
#946=DIRECTION('ref_axis',(-1.,-1.85037170770859E-16,0.));
#947=DIRECTION('',(-1.,-1.85037170770859E-16,0.));
#948=DIRECTION('',(0.,0.,-1.));
#949=DIRECTION('',(-1.,-1.85037170770859E-16,0.));
#950=DIRECTION('center_axis',(0.,0.,1.));
#951=DIRECTION('ref_axis',(1.,0.,0.));
#952=DIRECTION('center_axis',(0.,0.,1.));
#953=DIRECTION('ref_axis',(1.,0.,0.));
#954=DIRECTION('',(0.,-1.,0.));
#955=DIRECTION('center_axis',(0.,0.,1.));
#956=DIRECTION('ref_axis',(0.,-1.,0.));
#957=DIRECTION('center_axis',(1.85037170770859E-16,-1.,0.));
#958=DIRECTION('ref_axis',(-1.,-1.85037170770859E-16,0.));
#959=DIRECTION('',(-1.,-1.85037170770859E-16,0.));
#960=DIRECTION('',(0.,0.,-1.));
#961=DIRECTION('',(-1.,-1.85037170770859E-16,0.));
#962=DIRECTION('',(0.,0.,-1.));
#963=DIRECTION('center_axis',(1.,0.,0.));
#964=DIRECTION('ref_axis',(0.,-1.,0.));
#965=DIRECTION('',(0.,-1.,0.));
#966=DIRECTION('',(0.,0.,-1.));
#967=DIRECTION('',(0.,-1.,0.));
#968=DIRECTION('center_axis',(-1.85037170770859E-16,1.,0.));
#969=DIRECTION('ref_axis',(1.,1.85037170770859E-16,0.));
#970=DIRECTION('',(1.,1.85037170770859E-16,0.));
#971=DIRECTION('',(0.,0.,-1.));
#972=DIRECTION('',(1.,1.85037170770859E-16,0.));
#973=DIRECTION('center_axis',(0.,0.,1.));
#974=DIRECTION('ref_axis',(1.,0.,0.));
#975=DIRECTION('',(0.,1.,0.));
#976=DIRECTION('center_axis',(0.,0.,1.));
#977=DIRECTION('ref_axis',(0.,1.,0.));
#978=DIRECTION('center_axis',(0.,0.,1.));
#979=DIRECTION('ref_axis',(-1.,0.,0.));
#980=DIRECTION('center_axis',(-0.408248290463864,-0.816496580927728,-0.408248290463859));
#981=DIRECTION('ref_axis',(0.577350269189628,-0.577350269189626,0.577350269189624));
#982=DIRECTION('center_axis',(1.,0.,0.));
#983=DIRECTION('ref_axis',(0.,-1.,0.));
#984=DIRECTION('center_axis',(0.,0.,1.));
#985=DIRECTION('ref_axis',(1.,0.,0.));
#986=DIRECTION('center_axis',(0.,-1.,0.));
#987=DIRECTION('ref_axis',(0.,0.,1.));
#988=DIRECTION('center_axis',(0.,0.,1.));
#989=DIRECTION('ref_axis',(0.707106781186548,-0.707106781186547,0.));
#990=DIRECTION('',(0.,0.,1.));
#991=DIRECTION('',(0.,0.,-1.));
#992=DIRECTION('center_axis',(0.40824829046386,-0.816496580927729,-0.40824829046386));
#993=DIRECTION('ref_axis',(-0.577350269189624,-0.577350269189629,0.577350269189624));
#994=DIRECTION('center_axis',(0.,-1.,0.));
#995=DIRECTION('ref_axis',(-1.,0.,0.));
#996=DIRECTION('center_axis',(0.,0.,1.));
#997=DIRECTION('ref_axis',(0.,-1.,0.));
#998=DIRECTION('center_axis',(-1.,0.,0.));
#999=DIRECTION('ref_axis',(0.,0.,1.));
#1000=DIRECTION('center_axis',(0.,0.,1.));
#1001=DIRECTION('ref_axis',(-0.707106781186548,-0.707106781186548,0.));
#1002=DIRECTION('',(0.,0.,1.));
#1003=DIRECTION('',(0.,0.,-1.));
#1004=DIRECTION('center_axis',(1.,2.1350442781253E-16,0.));
#1005=DIRECTION('ref_axis',(0.,-0.707106781186548,0.707106781186548));
#1006=DIRECTION('',(-1.,-2.1350442781253E-16,0.));
#1007=DIRECTION('',(1.,2.1350442781253E-16,0.));
#1008=DIRECTION('center_axis',(0.408248290463864,-0.816496580927727,0.40824829046386));
#1009=DIRECTION('ref_axis',(0.577350269189628,0.577350269189627,0.577350269189623));
#1010=DIRECTION('center_axis',(0.,1.,0.));
#1011=DIRECTION('ref_axis',(1.,0.,0.));
#1012=DIRECTION('center_axis',(0.,0.,1.));
#1013=DIRECTION('ref_axis',(0.,1.,0.));
#1014=DIRECTION('center_axis',(1.,0.,0.));
#1015=DIRECTION('ref_axis',(0.,0.,1.));
#1016=DIRECTION('center_axis',(0.,0.,1.));
#1017=DIRECTION('ref_axis',(0.707106781186548,0.707106781186547,0.));
#1018=DIRECTION('',(0.,0.,1.));
#1019=DIRECTION('',(0.,0.,-1.));
#1020=DIRECTION('center_axis',(-0.40824829046386,-0.816496580927729,0.40824829046386));
#1021=DIRECTION('ref_axis',(-0.577350269189625,0.577350269189628,0.577350269189625));
#1022=DIRECTION('center_axis',(-1.,0.,0.));
#1023=DIRECTION('ref_axis',(0.,1.,0.));
#1024=DIRECTION('center_axis',(0.,0.,1.));
#1025=DIRECTION('ref_axis',(-1.,-1.73472347597681E-16,0.));
#1026=DIRECTION('center_axis',(0.,1.,0.));
#1027=DIRECTION('ref_axis',(0.,0.,1.));
#1028=DIRECTION('center_axis',(0.,0.,1.));
#1029=DIRECTION('ref_axis',(-0.707106781186548,0.707106781186547,0.));
#1030=DIRECTION('',(0.,0.,1.));
#1031=DIRECTION('',(0.,0.,-1.));
#1032=DIRECTION('center_axis',(2.1350442781253E-16,-1.,0.));
#1033=DIRECTION('ref_axis',(-0.707106781186548,0.,0.707106781186548));
#1034=DIRECTION('',(-2.1350442781253E-16,1.,0.));
#1035=DIRECTION('',(2.1350442781253E-16,-1.,0.));
#1036=DIRECTION('center_axis',(-1.,2.66880534765663E-17,0.));
#1037=DIRECTION('ref_axis',(0.,0.707106781186547,0.707106781186548));
#1038=DIRECTION('',(1.,-2.66880534765663E-17,0.));
#1039=DIRECTION('',(-1.,2.66880534765663E-17,0.));
#1040=DIRECTION('center_axis',(4.2700885562506E-16,1.,0.));
#1041=DIRECTION('ref_axis',(0.707106781186548,0.,0.707106781186548));
#1042=DIRECTION('',(-4.2700885562506E-16,-1.,0.));
#1043=DIRECTION('',(4.2700885562506E-16,1.,0.));
#1044=DIRECTION('center_axis',(2.1350442781253E-16,-1.,0.));
#1045=DIRECTION('ref_axis',(1.,2.1350442781253E-16,0.));
#1046=DIRECTION('',(-1.,-2.1350442781253E-16,0.));
#1047=DIRECTION('center_axis',(-1.,-2.1350442781253E-16,0.));
#1048=DIRECTION('ref_axis',(2.1350442781253E-16,-1.,0.));
#1049=DIRECTION('center_axis',(0.,0.,1.));
#1050=DIRECTION('ref_axis',(1.,0.,0.));
#1051=DIRECTION('center_axis',(0.,1.,0.));
#1052=DIRECTION('ref_axis',(0.,0.,1.));
#1053=DIRECTION('center_axis',(0.,-1.,0.));
#1054=DIRECTION('ref_axis',(-1.,0.,0.));
#1055=DIRECTION('center_axis',(-1.,0.,0.));
#1056=DIRECTION('ref_axis',(0.,0.,-1.));
#1057=DIRECTION('center_axis',(0.,1.,0.));
#1058=DIRECTION('ref_axis',(-1.,0.,0.));
#1059=DIRECTION('center_axis',(0.,1.,0.));
#1060=DIRECTION('ref_axis',(-1.,0.,0.));
#1061=DIRECTION('center_axis',(0.,1.,0.));
#1062=DIRECTION('ref_axis',(-1.,0.,0.));
#1063=DIRECTION('',(0.,-1.,0.));
#1064=DIRECTION('center_axis',(0.,-1.,0.));
#1065=DIRECTION('ref_axis',(-1.,0.,0.));
#1066=DIRECTION('center_axis',(0.,1.,0.));
#1067=DIRECTION('ref_axis',(0.,0.,1.));
#1068=DIRECTION('center_axis',(0.,1.,0.));
#1069=DIRECTION('ref_axis',(0.,0.,1.));
#1070=DIRECTION('center_axis',(0.,-1.,0.));
#1071=DIRECTION('ref_axis',(-1.,0.,0.));
#1072=DIRECTION('center_axis',(-1.,0.,0.));
#1073=DIRECTION('ref_axis',(0.,0.,-1.));
#1074=DIRECTION('center_axis',(0.,1.,0.));
#1075=DIRECTION('ref_axis',(-1.,0.,0.));
#1076=DIRECTION('center_axis',(0.,1.,0.));
#1077=DIRECTION('ref_axis',(-1.,0.,0.));
#1078=DIRECTION('center_axis',(0.,1.,0.));
#1079=DIRECTION('ref_axis',(-1.,0.,0.));
#1080=DIRECTION('',(0.,-1.,0.));
#1081=DIRECTION('center_axis',(0.,-1.,0.));
#1082=DIRECTION('ref_axis',(-1.,0.,0.));
#1083=DIRECTION('center_axis',(0.,1.,0.));
#1084=DIRECTION('ref_axis',(0.,0.,1.));
#1085=DIRECTION('center_axis',(-1.,0.,0.));
#1086=DIRECTION('ref_axis',(0.,0.,-1.));
#1087=DIRECTION('',(0.,0.,1.));
#1088=DIRECTION('',(0.,-1.,0.));
#1089=DIRECTION('',(0.,0.,-1.));
#1090=DIRECTION('',(0.,-1.,0.));
#1091=DIRECTION('center_axis',(0.,0.,1.));
#1092=DIRECTION('ref_axis',(-1.,0.,0.));
#1093=DIRECTION('',(1.,0.,0.));
#1094=DIRECTION('',(-1.,0.,0.));
#1095=DIRECTION('',(0.,-1.,0.));
#1096=DIRECTION('center_axis',(0.,-1.,0.));
#1097=DIRECTION('ref_axis',(0.,0.,-1.));
#1098=DIRECTION('',(1.,0.,0.));
#1099=DIRECTION('',(-4.11193712824132E-16,0.,-1.));
#1100=DIRECTION('center_axis',(1.,0.,0.));
#1101=DIRECTION('ref_axis',(0.,0.,1.));
#1102=DIRECTION('',(0.,0.,-1.));
#1103=DIRECTION('',(0.,-1.,0.));
#1104=DIRECTION('',(0.,0.,1.));
#1105=DIRECTION('',(0.,-1.,0.));
#1106=DIRECTION('center_axis',(0.,0.,-1.));
#1107=DIRECTION('ref_axis',(1.,0.,0.));
#1108=DIRECTION('',(-1.,0.,0.));
#1109=DIRECTION('',(1.,0.,0.));
#1110=DIRECTION('',(0.,-1.,0.));
#1111=DIRECTION('center_axis',(0.,-1.,0.));
#1112=DIRECTION('ref_axis',(0.,0.,-1.));
#1113=DIRECTION('',(-1.,0.,0.));
#1114=DIRECTION('',(4.11193712824132E-16,0.,1.));
#1115=DIRECTION('center_axis',(0.,0.,-1.));
#1116=DIRECTION('ref_axis',(1.,0.,0.));
#1117=DIRECTION('',(-1.,0.,0.));
#1118=DIRECTION('',(0.,1.,0.));
#1119=DIRECTION('',(1.,0.,0.));
#1120=DIRECTION('',(0.,-1.,0.));
#1121=DIRECTION('center_axis',(-1.,0.,0.));
#1122=DIRECTION('ref_axis',(0.,0.,-1.));
#1123=DIRECTION('',(0.,0.,1.));
#1124=DIRECTION('',(0.,0.,-1.));
#1125=DIRECTION('',(0.,-1.,0.));
#1126=DIRECTION('center_axis',(0.,-1.,0.));
#1127=DIRECTION('ref_axis',(0.,0.,-1.));
#1128=DIRECTION('',(-4.11193712824132E-16,0.,-1.));
#1129=DIRECTION('',(-1.,0.,0.));
#1130=DIRECTION('center_axis',(0.,0.,1.));
#1131=DIRECTION('ref_axis',(-1.,0.,0.));
#1132=DIRECTION('',(1.,0.,0.));
#1133=DIRECTION('',(0.,1.,0.));
#1134=DIRECTION('',(-1.,0.,0.));
#1135=DIRECTION('',(0.,-1.,0.));
#1136=DIRECTION('center_axis',(1.,0.,0.));
#1137=DIRECTION('ref_axis',(0.,0.,1.));
#1138=DIRECTION('',(0.,0.,-1.));
#1139=DIRECTION('',(0.,0.,1.));
#1140=DIRECTION('',(0.,-1.,0.));
#1141=DIRECTION('center_axis',(0.,-1.,0.));
#1142=DIRECTION('ref_axis',(0.,0.,-1.));
#1143=DIRECTION('',(4.11193712824132E-16,0.,1.));
#1144=DIRECTION('',(1.,0.,0.));
#1145=DIRECTION('center_axis',(-1.,0.,4.11193712824132E-16));
#1146=DIRECTION('ref_axis',(-4.11193712824132E-16,0.,-1.));
#1147=DIRECTION('',(0.,-1.,0.));
#1148=DIRECTION('',(-4.11193712824132E-16,0.,-1.));
#1149=DIRECTION('',(0.,-1.,0.));
#1150=DIRECTION('',(4.11193712824132E-16,0.,1.));
#1151=DIRECTION('center_axis',(1.,0.,-4.11193712824132E-16));
#1152=DIRECTION('ref_axis',(4.11193712824132E-16,0.,1.));
#1153=DIRECTION('',(0.,-1.,0.));
#1154=DIRECTION('',(4.11193712824132E-16,0.,1.));
#1155=DIRECTION('',(0.,-1.,0.));
#1156=DIRECTION('',(-4.11193712824132E-16,0.,-1.));
#1157=DIRECTION('center_axis',(1.,-4.2700885562506E-16,0.));
#1158=DIRECTION('ref_axis',(4.2700885562506E-16,1.,0.));
#1159=DIRECTION('center_axis',(2.66880534765663E-17,1.,0.));
#1160=DIRECTION('ref_axis',(-1.,2.66880534765663E-17,0.));
#1161=DIRECTION('',(1.,-2.66880534765663E-17,0.));
#1162=DIRECTION('center_axis',(0.,0.,1.));
#1163=DIRECTION('ref_axis',(-1.,0.,0.));
#1164=DIRECTION('',(1.,0.,0.));
#1165=DIRECTION('',(-1.,0.,0.));
#1166=DIRECTION('center_axis',(0.,0.,-1.));
#1167=DIRECTION('ref_axis',(1.,0.,0.));
#1168=DIRECTION('',(-1.,0.,0.));
#1169=DIRECTION('',(1.,0.,0.));
#1170=DIRECTION('center_axis',(0.,-1.,0.));
#1171=DIRECTION('ref_axis',(0.,0.,-1.));
#1172=DIRECTION('center_axis',(0.,-1.,0.));
#1173=DIRECTION('ref_axis',(0.,0.,-1.));
#1174=CARTESIAN_POINT('',(0.,0.,0.));
#1175=CARTESIAN_POINT('Origin',(-4.85,-0.05,2.7));
#1176=CARTESIAN_POINT('',(-4.85,-0.05,2.7));
#1177=CARTESIAN_POINT('',(-4.7,-0.0499999999999998,2.7));
#1178=CARTESIAN_POINT('',(-2.425,-0.0499999999999996,2.7));
#1179=CARTESIAN_POINT('',(-4.85,-0.05,2.6));
#1180=CARTESIAN_POINT('',(-4.85,-0.05,2.7));
#1181=CARTESIAN_POINT('',(-4.7,-0.0499999999999998,2.6));
#1182=CARTESIAN_POINT('',(-1.85,-0.0499999999999995,2.6));
#1183=CARTESIAN_POINT('',(-4.7,-0.0499999999999998,2.7));
#1184=CARTESIAN_POINT('Origin',(-4.85,-1.35,2.7));
#1185=CARTESIAN_POINT('',(-4.85,-1.35,2.7));
#1186=CARTESIAN_POINT('',(-4.85,-0.675000000000001,2.7));
#1187=CARTESIAN_POINT('',(-4.85,-1.35,2.6));
#1188=CARTESIAN_POINT('',(-4.85,-1.35,2.7));
#1189=CARTESIAN_POINT('',(-4.85,-0.05,2.6));
#1190=CARTESIAN_POINT('Origin',(-4.7,-1.35,2.7));
#1191=CARTESIAN_POINT('',(-4.7,-1.35,2.7));
#1192=CARTESIAN_POINT('',(-2.35,-1.35,2.7));
#1193=CARTESIAN_POINT('',(-4.7,-1.35,2.6));
#1194=CARTESIAN_POINT('',(-4.7,-1.35,2.7));
#1195=CARTESIAN_POINT('',(-4.85,-1.35,2.6));
#1196=CARTESIAN_POINT('Origin',(-4.81667043828337,-0.7,2.6));
#1197=CARTESIAN_POINT('',(-4.8,-1.25,2.6));
#1198=CARTESIAN_POINT('Origin',(-4.7,-1.25,2.6));
#1199=CARTESIAN_POINT('',(-4.8,-0.15,2.6));
#1200=CARTESIAN_POINT('',(-4.8,-1.25,2.6));
#1201=CARTESIAN_POINT('Origin',(-4.7,-0.15,2.6));
#1202=CARTESIAN_POINT('Origin',(-1.85,-1.35,2.7));
#1203=CARTESIAN_POINT('',(-1.85,-1.35,2.7));
#1204=CARTESIAN_POINT('',(-3.6,-1.35,2.7));
#1205=CARTESIAN_POINT('',(-0.924999999999998,-1.35,2.7));
#1206=CARTESIAN_POINT('',(-1.85,-1.35,2.6));
#1207=CARTESIAN_POINT('',(-1.85,-1.35,2.7));
#1208=CARTESIAN_POINT('',(-3.6,-1.35,2.6));
#1209=CARTESIAN_POINT('',(-4.85,-1.35,2.6));
#1210=CARTESIAN_POINT('',(-3.6,-1.35,2.7));
#1211=CARTESIAN_POINT('Origin',(-1.85,-0.0499999999999995,2.7));
#1212=CARTESIAN_POINT('',(-1.85,-0.0499999999999995,2.7));
#1213=CARTESIAN_POINT('',(-1.85,-0.0249999999999997,2.7));
#1214=CARTESIAN_POINT('',(-1.85,-0.0499999999999995,2.6));
#1215=CARTESIAN_POINT('',(-1.85,-0.0499999999999995,2.7));
#1216=CARTESIAN_POINT('',(-1.85,-1.35,2.6));
#1217=CARTESIAN_POINT('Origin',(-3.6,-0.0499999999999998,2.7));
#1218=CARTESIAN_POINT('',(-3.6,-0.0499999999999998,2.7));
#1219=CARTESIAN_POINT('',(-1.8,-0.0499999999999995,2.7));
#1220=CARTESIAN_POINT('',(-3.6,-0.0499999999999998,2.6));
#1221=CARTESIAN_POINT('',(-3.6,-0.0499999999999998,2.7));
#1222=CARTESIAN_POINT('',(-1.85,-0.0499999999999995,2.6));
#1223=CARTESIAN_POINT('Origin',(-2.7097068432718,-0.7,2.6));
#1224=CARTESIAN_POINT('',(-3.5,-1.25,2.6));
#1225=CARTESIAN_POINT('',(-3.5,-0.15,2.6));
#1226=CARTESIAN_POINT('',(-3.5,-0.15,2.6));
#1227=CARTESIAN_POINT('Origin',(-3.6,-1.25,2.6));
#1228=CARTESIAN_POINT('Origin',(-3.6,-0.15,2.6));
#1229=CARTESIAN_POINT('Origin',(-3.6,-1.25,4.1));
#1230=CARTESIAN_POINT('',(-3.6,-1.35,4.1));
#1231=CARTESIAN_POINT('',(-3.6,-1.25,4.2));
#1232=CARTESIAN_POINT('Origin',(-3.6,-1.25,4.1));
#1233=CARTESIAN_POINT('',(-3.5,-1.25,4.1));
#1234=CARTESIAN_POINT('Origin',(-3.6,-1.25,4.1));
#1235=CARTESIAN_POINT('Origin',(-3.6,-1.25,4.1));
#1236=CARTESIAN_POINT('Origin',(-3.6,-1.25,2.7));
#1237=CARTESIAN_POINT('',(-3.5,-1.25,2.7));
#1238=CARTESIAN_POINT('',(-3.6,-1.35,2.7));
#1239=CARTESIAN_POINT('Origin',(-4.7,-1.25,4.1));
#1240=CARTESIAN_POINT('',(-4.8,-1.25,4.1));
#1241=CARTESIAN_POINT('',(-4.7,-1.25,4.2));
#1242=CARTESIAN_POINT('Origin',(-4.7,-1.25,4.1));
#1243=CARTESIAN_POINT('',(-4.7,-1.35,4.1));
#1244=CARTESIAN_POINT('Origin',(-4.7,-1.25,4.1));
#1245=CARTESIAN_POINT('Origin',(-4.7,-1.25,4.1));
#1246=CARTESIAN_POINT('Origin',(-4.7,-1.25,2.7));
#1247=CARTESIAN_POINT('',(-4.7,-1.35,2.7));
#1248=CARTESIAN_POINT('',(-4.8,-1.25,2.7));
#1249=CARTESIAN_POINT('Origin',(-4.475,-1.25,4.1));
#1250=CARTESIAN_POINT('',(-4.475,-1.25,4.2));
#1251=CARTESIAN_POINT('',(-4.475,-1.35,4.1));
#1252=CARTESIAN_POINT('Origin',(-3.6,-0.15,4.1));
#1253=CARTESIAN_POINT('',(-3.5,-0.15,4.1));
#1254=CARTESIAN_POINT('',(-3.6,-0.15,4.2));
#1255=CARTESIAN_POINT('Origin',(-3.6,-0.15,4.1));
#1256=CARTESIAN_POINT('',(-3.6,-0.0499999999999998,4.1));
#1257=CARTESIAN_POINT('Origin',(-3.6,-0.15,4.1));
#1258=CARTESIAN_POINT('Origin',(-3.6,-0.15,4.1));
#1259=CARTESIAN_POINT('Origin',(-3.6,-0.15,2.7));
#1260=CARTESIAN_POINT('',(-3.6,-0.0499999999999998,2.7));
#1261=CARTESIAN_POINT('',(-3.5,-0.15,2.7));
#1262=CARTESIAN_POINT('Origin',(-4.7,-0.15,4.1));
#1263=CARTESIAN_POINT('',(-4.7,-0.0499999999999998,4.1));
#1264=CARTESIAN_POINT('',(-4.7,-0.15,4.2));
#1265=CARTESIAN_POINT('Origin',(-4.7,-0.15,4.1));
#1266=CARTESIAN_POINT('',(-4.8,-0.15,4.1));
#1267=CARTESIAN_POINT('Origin',(-4.7,-0.15,4.1));
#1268=CARTESIAN_POINT('Origin',(-4.7,-0.15,4.1));
#1269=CARTESIAN_POINT('Origin',(-4.7,-0.15,2.7));
#1270=CARTESIAN_POINT('',(-4.8,-0.15,2.7));
#1271=CARTESIAN_POINT('',(-4.7,-0.0499999999999998,2.7));
#1272=CARTESIAN_POINT('Origin',(-4.7,-0.375,4.1));
#1273=CARTESIAN_POINT('',(-4.7,-0.375,4.2));
#1274=CARTESIAN_POINT('',(-4.8,-0.375,4.1));
#1275=CARTESIAN_POINT('Origin',(-3.825,-0.15,4.1));
#1276=CARTESIAN_POINT('',(-3.825,-0.15,4.2));
#1277=CARTESIAN_POINT('',(-3.825,-0.0499999999999998,4.1));
#1278=CARTESIAN_POINT('Origin',(-3.6,-1.025,4.1));
#1279=CARTESIAN_POINT('',(-3.6,-1.025,4.2));
#1280=CARTESIAN_POINT('',(-3.5,-1.025,4.1));
#1281=CARTESIAN_POINT('Origin',(-4.8,-1.35,2.7));
#1282=CARTESIAN_POINT('',(-2.4,-1.35,2.7));
#1283=CARTESIAN_POINT('Origin',(-4.8,-0.0499999999999998,2.7));
#1284=CARTESIAN_POINT('Origin',(-4.15,-0.7,4.2));
#1285=CARTESIAN_POINT('Origin',(-1.85,0.4,1.35));
#1286=CARTESIAN_POINT('',(-1.85,0.5,1.1));
#1287=CARTESIAN_POINT('Origin',(-1.85,0.5,1.35));
#1288=CARTESIAN_POINT('',(-1.85,0.4,1.));
#1289=CARTESIAN_POINT('Origin',(-1.85,0.4,1.1));
#1290=CARTESIAN_POINT('',(-1.5,0.4,1.35));
#1291=CARTESIAN_POINT('Origin',(-1.85,0.4,1.35));
#1292=CARTESIAN_POINT('Origin',(-1.85,0.4,1.35));
#1293=CARTESIAN_POINT('Origin',(-1.85,0.,1.35));
#1294=CARTESIAN_POINT('',(-1.5,0.,1.35));
#1295=CARTESIAN_POINT('',(-1.5,0.,1.35));
#1296=CARTESIAN_POINT('Origin',(-1.85,0.,1.35));
#1297=CARTESIAN_POINT('Origin',(-1.85,0.5,1.35));
#1298=CARTESIAN_POINT('Origin',(-4.85,0.4,1.35));
#1299=CARTESIAN_POINT('',(-4.85,0.5,1.1));
#1300=CARTESIAN_POINT('Origin',(-4.85,0.5,1.35));
#1301=CARTESIAN_POINT('',(-4.85,0.4,1.));
#1302=CARTESIAN_POINT('Origin',(-4.85,0.4,1.1));
#1303=CARTESIAN_POINT('',(-4.5,0.4,1.35));
#1304=CARTESIAN_POINT('Origin',(-4.85,0.4,1.35));
#1305=CARTESIAN_POINT('Origin',(-4.85,0.4,1.35));
#1306=CARTESIAN_POINT('Origin',(-4.85,0.,1.35));
#1307=CARTESIAN_POINT('',(-4.5,0.,1.35));
#1308=CARTESIAN_POINT('',(-4.5,0.,1.35));
#1309=CARTESIAN_POINT('Origin',(-4.85,0.,1.35));
#1310=CARTESIAN_POINT('Origin',(-4.85,0.5,1.35));
#1311=CARTESIAN_POINT('Origin',(-7.25,0.,0.4));
#1312=CARTESIAN_POINT('',(-7.25,0.,0.));
#1313=CARTESIAN_POINT('',(-7.25,0.,0.4));
#1314=CARTESIAN_POINT('',(-7.25,0.,0.));
#1315=CARTESIAN_POINT('',(-7.25,-0.15,0.));
#1316=CARTESIAN_POINT('',(-7.25,0.,0.));
#1317=CARTESIAN_POINT('',(-7.25,-0.15,0.4));
#1318=CARTESIAN_POINT('',(-7.25,-0.15,0.));
#1319=CARTESIAN_POINT('',(-7.25,0.,0.4));
#1320=CARTESIAN_POINT('Origin',(-6.7,0.,0.4));
#1321=CARTESIAN_POINT('',(-6.7,0.,0.4));
#1322=CARTESIAN_POINT('',(-7.25,0.,0.4));
#1323=CARTESIAN_POINT('',(-6.7,-0.15,0.4));
#1324=CARTESIAN_POINT('',(-7.25,-0.15,0.4));
#1325=CARTESIAN_POINT('',(-6.7,0.,0.4));
#1326=CARTESIAN_POINT('Origin',(-6.975,-0.15,0.2));
#1327=CARTESIAN_POINT('',(-6.7,-0.15,0.));
#1328=CARTESIAN_POINT('',(-6.7,-0.15,0.));
#1329=CARTESIAN_POINT('',(-6.7,-0.15,1.45));
#1330=CARTESIAN_POINT('Origin',(0.55,0.,2.3));
#1331=CARTESIAN_POINT('',(0.55,0.,2.7));
#1332=CARTESIAN_POINT('',(0.55,0.,2.3));
#1333=CARTESIAN_POINT('',(0.55,0.,2.7));
#1334=CARTESIAN_POINT('',(0.55,-0.15,2.7));
#1335=CARTESIAN_POINT('',(0.55,0.,2.7));
#1336=CARTESIAN_POINT('',(0.55,-0.15,2.3));
#1337=CARTESIAN_POINT('',(0.55,-0.15,2.7));
#1338=CARTESIAN_POINT('',(0.55,0.,2.3));
#1339=CARTESIAN_POINT('Origin',(1.11022302462516E-15,0.,2.3));
#1340=CARTESIAN_POINT('',(1.11022302462516E-15,0.,2.3));
#1341=CARTESIAN_POINT('',(0.55,0.,2.3));
#1342=CARTESIAN_POINT('',(1.11022302462516E-15,-0.15,2.3));
#1343=CARTESIAN_POINT('',(0.55,-0.15,2.3));
#1344=CARTESIAN_POINT('',(9.45745539495504E-16,0.,2.3));
#1345=CARTESIAN_POINT('Origin',(0.275000000000001,-0.15,2.5));
#1346=CARTESIAN_POINT('',(1.11022302462516E-15,-0.15,2.7));
#1347=CARTESIAN_POINT('',(1.11022302462516E-15,-0.15,2.7));
#1348=CARTESIAN_POINT('',(5.20417042793042E-16,-0.15,1.25));
#1349=CARTESIAN_POINT('Origin',(-7.25,0.,2.3));
#1350=CARTESIAN_POINT('',(-6.7,0.,2.3));
#1351=CARTESIAN_POINT('',(-7.25,0.,2.3));
#1352=CARTESIAN_POINT('',(-6.7,0.,2.3));
#1353=CARTESIAN_POINT('',(-6.7,-0.15,2.3));
#1354=CARTESIAN_POINT('',(-6.7,0.,2.3));
#1355=CARTESIAN_POINT('',(-7.25,-0.15,2.3));
#1356=CARTESIAN_POINT('',(-6.7,-0.15,2.3));
#1357=CARTESIAN_POINT('',(-7.25,0.,2.3));
#1358=CARTESIAN_POINT('Origin',(-7.25,0.,2.7));
#1359=CARTESIAN_POINT('',(-7.25,0.,2.7));
#1360=CARTESIAN_POINT('',(-7.25,0.,2.3));
#1361=CARTESIAN_POINT('',(-7.25,-0.15,2.7));
#1362=CARTESIAN_POINT('',(-7.25,-0.15,2.3));
#1363=CARTESIAN_POINT('',(-7.25,0.,2.7));
#1364=CARTESIAN_POINT('Origin',(-6.975,-0.15,2.5));
#1365=CARTESIAN_POINT('',(-6.7,-0.15,2.7));
#1366=CARTESIAN_POINT('',(-6.7,-0.15,2.6));
#1367=CARTESIAN_POINT('',(-7.25,-0.15,2.7));
#1368=CARTESIAN_POINT('Origin',(0.55,0.,0.4));
#1369=CARTESIAN_POINT('',(0.,0.,0.4));
#1370=CARTESIAN_POINT('',(0.55,0.,0.4));
#1371=CARTESIAN_POINT('',(0.,0.,0.4));
#1372=CARTESIAN_POINT('',(0.,-0.15,0.4));
#1373=CARTESIAN_POINT('',(1.73472347597681E-16,0.,0.4));
#1374=CARTESIAN_POINT('',(0.55,-0.15,0.4));
#1375=CARTESIAN_POINT('',(0.,-0.15,0.4));
#1376=CARTESIAN_POINT('',(0.55,0.,0.4));
#1377=CARTESIAN_POINT('Origin',(0.55,0.,0.));
#1378=CARTESIAN_POINT('',(0.55,0.,0.));
#1379=CARTESIAN_POINT('',(0.55,0.,0.4));
#1380=CARTESIAN_POINT('',(0.55,-0.15,0.));
#1381=CARTESIAN_POINT('',(0.55,-0.15,0.4));
#1382=CARTESIAN_POINT('',(0.55,0.,0.));
#1383=CARTESIAN_POINT('Origin',(0.275,-0.15,0.2));
#1384=CARTESIAN_POINT('',(0.,-0.15,0.));
#1385=CARTESIAN_POINT('',(3.46944695195361E-17,-0.15,0.1));
#1386=CARTESIAN_POINT('',(0.55,-0.15,0.));
#1387=CARTESIAN_POINT('Origin',(-6.7,0.,2.7));
#1388=CARTESIAN_POINT('',(-6.7,-1.4,0.));
#1389=CARTESIAN_POINT('',(-6.7,0.,0.));
#1390=CARTESIAN_POINT('',(-6.7,-1.4,2.7));
#1391=CARTESIAN_POINT('',(-6.7,-1.4,0.));
#1392=CARTESIAN_POINT('',(-6.7,0.,2.7));
#1393=CARTESIAN_POINT('',(-6.7,0.,0.));
#1394=CARTESIAN_POINT('Origin',(0.,0.,0.));
#1395=CARTESIAN_POINT('',(1.11022302462516E-15,-1.4,2.7));
#1396=CARTESIAN_POINT('',(1.11022302462516E-15,0.,2.7));
#1397=CARTESIAN_POINT('',(0.,-1.4,0.));
#1398=CARTESIAN_POINT('',(1.11022302462516E-15,-1.4,2.7));
#1399=CARTESIAN_POINT('',(0.,0.,0.));
#1400=CARTESIAN_POINT('',(1.11022302462516E-15,0.,2.7));
#1401=CARTESIAN_POINT('Origin',(-3.5,-1.35,2.7));
#1402=CARTESIAN_POINT('Origin',(-3.5,-0.0499999999999998,2.7));
#1403=CARTESIAN_POINT('',(-1.75,-0.0499999999999999,2.7));
#1404=CARTESIAN_POINT('Origin',(1.11022302462516E-15,0.,2.7));
#1405=CARTESIAN_POINT('',(-6.7,0.,2.7));
#1406=CARTESIAN_POINT('',(-6.7,-1.4,2.7));
#1407=CARTESIAN_POINT('Origin',(-6.7,0.,0.));
#1408=CARTESIAN_POINT('',(0.,0.,0.));
#1409=CARTESIAN_POINT('',(0.,-1.4,0.));
#1410=CARTESIAN_POINT('Origin',(-3.35,0.,1.35));
#1411=CARTESIAN_POINT('Origin',(-3.35,-1.4,1.35));
#1412=UNCERTAINTY_MEASURE_WITH_UNIT(LENGTH_MEASURE(0.01),#1416,
'DISTANCE_ACCURACY_VALUE',
'Maximum model space distance between geometric entities at asserted c
onnectivities');
#1413=UNCERTAINTY_MEASURE_WITH_UNIT(LENGTH_MEASURE(0.01),#1416,
'DISTANCE_ACCURACY_VALUE',
'Maximum model space distance between geometric entities at asserted c
onnectivities');
#1414=(
GEOMETRIC_REPRESENTATION_CONTEXT(3)
GLOBAL_UNCERTAINTY_ASSIGNED_CONTEXT((#1412))
GLOBAL_UNIT_ASSIGNED_CONTEXT((#1416,#1418,#1419))
REPRESENTATION_CONTEXT('','3D')
);
#1415=(
GEOMETRIC_REPRESENTATION_CONTEXT(3)
GLOBAL_UNCERTAINTY_ASSIGNED_CONTEXT((#1413))
GLOBAL_UNIT_ASSIGNED_CONTEXT((#1416,#1418,#1419))
REPRESENTATION_CONTEXT('','3D')
);
#1416=(
LENGTH_UNIT()
NAMED_UNIT(*)
SI_UNIT(.MILLI.,.METRE.)
);
#1417=(
LENGTH_UNIT()
NAMED_UNIT(*)
SI_UNIT($,.METRE.)
);
#1418=(
NAMED_UNIT(*)
PLANE_ANGLE_UNIT()
SI_UNIT($,.RADIAN.)
);
#1419=(
NAMED_UNIT(*)
SI_UNIT($,.STERADIAN.)
SOLID_ANGLE_UNIT()
);
#1420=SHAPE_DEFINITION_REPRESENTATION(#1421,#1422);
#1421=PRODUCT_DEFINITION_SHAPE('',$,#1424);
#1422=SHAPE_REPRESENTATION('',(#856),#1414);
#1423=PRODUCT_DEFINITION_CONTEXT('part definition',#1428,'design');
#1424=PRODUCT_DEFINITION('msk12c02','msk12c02',#1425,#1423);
#1425=PRODUCT_DEFINITION_FORMATION('',$,#1430);
#1426=PRODUCT_RELATED_PRODUCT_CATEGORY('msk12c02','msk12c02',(#1430));
#1427=APPLICATION_PROTOCOL_DEFINITION('international standard',
'automotive_design',2009,#1428);
#1428=APPLICATION_CONTEXT(
'Core Data for Automotive Mechanical Design Process');
#1429=PRODUCT_CONTEXT('part definition',#1428,'mechanical');
#1430=PRODUCT('msk12c02','msk12c02',$,(#1429));
#1431=PRESENTATION_STYLE_ASSIGNMENT((#1432));
#1432=SURFACE_STYLE_USAGE(.BOTH.,#1433);
#1433=SURFACE_SIDE_STYLE('',(#1434));
#1434=SURFACE_STYLE_FILL_AREA(#1435);
#1435=FILL_AREA_STYLE('Default',(#1436));
#1436=FILL_AREA_STYLE_COLOUR('Default',#1437);
#1437=COLOUR_RGB('Default',0.749019607843137,0.749019607843137,0.749019607843137);
ENDSEC;
END-ISO-10303-21;
