%TF.GenerationSoftware,KiCad,Pcbnew,10.0.4*%
%TF.CreationDate,2026-08-17T13:45:27-04:00*%
%TF.ProjectId,Split Keyboard v2,53706c69-7420-44b6-9579-626f61726420,rev?*%
%TF.SameCoordinates,Original*%
%TF.FileFunction,Profile,NP*%
%FSLAX46Y46*%
G04 Gerber Fmt 4.6, Leading zero omitted, Abs format (unit mm)*
G04 Created by KiCad (PCBNEW 10.0.4) date 2026-08-17 13:45:27*
%MOMM*%
%LPD*%
G01*
G04 APERTURE LIST*
%TA.AperFunction,Profile*%
%ADD10C,0.050000*%
%TD*%
%TA.AperFunction,Profile*%
%ADD11C,0.100000*%
%TD*%
G04 APERTURE END LIST*
D10*
X88000000Y-179000000D02*
X87000000Y-179000000D01*
X365000000Y-179000000D02*
X366000000Y-179000000D01*
X228500000Y-103000000D02*
X229500000Y-103000000D01*
X228500000Y-96000000D02*
X229500000Y-96000000D01*
X223500000Y-96000000D02*
X224500000Y-96000000D01*
X223500000Y-103000000D02*
X224500000Y-103000000D01*
X220000000Y-106438473D02*
X220000000Y-108500000D01*
X222000000Y-108500000D02*
X222000000Y-105000000D01*
X222000000Y-123500000D02*
X222000000Y-112500000D01*
X220000000Y-112500000D02*
X220000000Y-123500000D01*
X306000000Y-96000000D02*
X313692236Y-96000000D01*
X302000000Y-96000000D02*
X294274431Y-96000000D01*
X233732233Y-154732233D02*
X240585785Y-161585786D01*
X336000000Y-179000000D02*
X361000000Y-179000000D01*
X332000000Y-179000000D02*
X330560597Y-179000000D01*
X336000000Y-181000000D02*
X361000000Y-181000000D01*
X218122603Y-104017241D02*
G75*
G02*
X220000026Y-106438473I-622603J-2421259D01*
G01*
X233000000Y-106438473D02*
X233000000Y-108500000D01*
X233000000Y-112500000D02*
X233000000Y-123500000D01*
X233000000Y-138500000D02*
X233000000Y-127500000D01*
X233000000Y-142500000D02*
X233000000Y-152964466D01*
X243414215Y-164414214D02*
X253267767Y-174267767D01*
X151000000Y-96000000D02*
X158725569Y-96000000D01*
X139307764Y-96000000D02*
X147000000Y-96000000D01*
X220000000Y-142500000D02*
X220000000Y-152964466D01*
X220000000Y-127500000D02*
X220000000Y-138500000D01*
X220000000Y-152964466D02*
G75*
G02*
X219267784Y-154732250I-2500000J-34D01*
G01*
X199732233Y-174267767D02*
G75*
G02*
X197964466Y-174999976I-1767733J1767767D01*
G01*
X209585786Y-164414214D02*
X199732233Y-174267767D01*
X219267767Y-154732233D02*
X212414214Y-161585786D01*
X123506919Y-178760622D02*
G75*
G02*
X122439403Y-179000002I-1067519J2260622D01*
G01*
X87000000Y-179000000D02*
G75*
G02*
X84500000Y-176500000I0J2500000D01*
G01*
X92000000Y-179000000D02*
X117000000Y-179000000D01*
X121000000Y-179000000D02*
X122439403Y-179000000D01*
X123506919Y-178760622D02*
X140493081Y-170739378D01*
X242000000Y-165828427D02*
X249500000Y-179000000D01*
X243500000Y-179000000D02*
X249500000Y-179000000D01*
X203500000Y-179000000D02*
X211000000Y-165828427D01*
X209500000Y-179000000D02*
X203500000Y-179000000D01*
X224500000Y-155000000D02*
X213828427Y-163000000D01*
X239171573Y-163000000D02*
X228500000Y-155000000D01*
X228500000Y-179000000D02*
X239500000Y-179000000D01*
X213500000Y-179000000D02*
X224500000Y-179000000D01*
X228500000Y-153000000D02*
X231000000Y-153000000D01*
X222000000Y-153000000D02*
X224500000Y-153000000D01*
X231000000Y-127500000D02*
X231000000Y-138500000D01*
X222000000Y-127500000D02*
X222000000Y-138500000D01*
X231000000Y-112500000D02*
X231000000Y-123500000D01*
X228500000Y-105000000D02*
X231000000Y-105000000D01*
X224500000Y-105000000D02*
X222000000Y-105000000D01*
X231000000Y-105000000D02*
X231000000Y-108500000D01*
X231000000Y-142500000D02*
X231000000Y-153000000D01*
X222000000Y-142500000D02*
X222000000Y-153000000D01*
X368500000Y-86000000D02*
X84500000Y-86000000D01*
X228500000Y-94000000D02*
X302000000Y-94000000D01*
X224500000Y-94000000D02*
X151000000Y-94000000D01*
X368500000Y-189000000D02*
X84500000Y-189000000D01*
X243500000Y-181000000D02*
X332000000Y-181000000D01*
X228500000Y-181000000D02*
X239500000Y-181000000D01*
X213500000Y-181000000D02*
X224500000Y-181000000D01*
X121000000Y-181000000D02*
X209500000Y-181000000D01*
X92000000Y-181000000D02*
X117000000Y-181000000D01*
X84500000Y-86000000D02*
X84500000Y-94000000D01*
X147000000Y-94000000D02*
X84500000Y-94000000D01*
X368500000Y-86000000D02*
X368500000Y-94000000D01*
X306000000Y-94000000D02*
X368500000Y-94000000D01*
X368500000Y-181000000D02*
X368500000Y-189000000D01*
X365000000Y-181000000D02*
X368500000Y-181000000D01*
X84500000Y-181000000D02*
X84500000Y-189000000D01*
X84500000Y-181000000D02*
X88000000Y-181000000D01*
X229500000Y-103000000D02*
X230500000Y-102000000D01*
X230500000Y-97000000D02*
X230500000Y-102000000D01*
X229500000Y-96000000D02*
X230500000Y-97000000D01*
X222500000Y-102000000D02*
X223500000Y-103000000D01*
X222500000Y-97000000D02*
X222500000Y-102000000D01*
X223500000Y-96000000D02*
X222500000Y-97000000D01*
X368500000Y-176500000D02*
G75*
G02*
X366000000Y-179000000I-2500000J0D01*
G01*
X366567016Y-108549856D02*
G75*
G02*
X368499994Y-110984705I-567016J-2434844D01*
G01*
X84500000Y-110984705D02*
G75*
G02*
X86432983Y-108549851I2500000J5D01*
G01*
X158725569Y-96000000D02*
G75*
G02*
X159267897Y-96059523I31J-2500100D01*
G01*
X202183716Y-100000000D02*
G75*
G02*
X202806318Y-100078772I-16J-2500000D01*
G01*
X177274431Y-100000000D02*
G75*
G02*
X176732104Y-99940472I-31J2499900D01*
G01*
X175307764Y-175000000D02*
G75*
G02*
X174701427Y-174925348I36J2500000D01*
G01*
X156692236Y-170500000D02*
G75*
G02*
X157298573Y-170574652I-36J-2500000D01*
G01*
X140493081Y-170739378D02*
G75*
G02*
X141560597Y-170499998I1067519J-2260622D01*
G01*
X121015903Y-100496024D02*
G75*
G02*
X120984046Y-100503767I-603903J2415224D01*
G01*
X138701425Y-96074644D02*
G75*
G02*
X139307764Y-95999992I606375J-2425356D01*
G01*
X84500000Y-110984705D02*
X84500000Y-176500000D01*
X120984046Y-100503767D02*
X86432984Y-108549856D01*
X138701425Y-96074644D02*
X121015903Y-100496024D01*
X141560597Y-170500000D02*
X156692236Y-170500000D01*
X157298575Y-170574644D02*
X174701425Y-174925356D01*
X176732105Y-99940468D02*
X159267895Y-96059532D01*
X197964466Y-175000000D02*
X175307764Y-175000000D01*
X202183716Y-100000000D02*
X177274431Y-100000000D01*
X218122603Y-104017241D02*
X202806319Y-100078768D01*
X250193681Y-100078768D02*
G75*
G02*
X250816284Y-99999996I622619J-2421232D01*
G01*
X255035534Y-175000000D02*
G75*
G02*
X253267750Y-174267784I-34J2500000D01*
G01*
X233000000Y-106438473D02*
G75*
G02*
X234877403Y-104017266I2500000J-27D01*
G01*
X233732233Y-154732233D02*
G75*
G02*
X233000024Y-152964466I1767767J1767733D01*
G01*
X278298575Y-174925356D02*
G75*
G02*
X277692236Y-175000008I-606375J2425356D01*
G01*
X276267895Y-99940468D02*
G75*
G02*
X275725569Y-99999991I-542295J2440568D01*
G01*
X313692236Y-96000000D02*
G75*
G02*
X314298573Y-96074652I-36J-2500000D01*
G01*
X293732105Y-96059532D02*
G75*
G02*
X294274431Y-96000004I542295J-2440368D01*
G01*
X295701425Y-170574644D02*
G75*
G02*
X296307764Y-170499992I606375J-2425356D01*
G01*
X311439403Y-170500000D02*
G75*
G02*
X312506918Y-170739380I-3J-2500000D01*
G01*
X332015954Y-100503767D02*
G75*
G02*
X331984097Y-100496024I572046J2422967D01*
G01*
X330560597Y-179000000D02*
G75*
G02*
X329493082Y-178760620I3J2500000D01*
G01*
X234877397Y-104017241D02*
X250193681Y-100078768D01*
X250816284Y-100000000D02*
X275725569Y-100000000D01*
X276267895Y-99940468D02*
X293732105Y-96059532D01*
X277692236Y-175000000D02*
X255035534Y-175000000D01*
X295701425Y-170574644D02*
X278298575Y-174925356D01*
X311439403Y-170500000D02*
X296307764Y-170500000D01*
X314298575Y-96074644D02*
X331984097Y-100496024D01*
X329493081Y-178760622D02*
X312506919Y-170739378D01*
X332015954Y-100503767D02*
X366567016Y-108549856D01*
X368500000Y-110984705D02*
X368500000Y-176500000D01*
%TO.C,REF\u002A\u002A*%
D11*
X302000000Y-94000000D02*
G75*
G02*
X302000000Y-96000000I0J-1000000D01*
G01*
X306000000Y-96000000D02*
G75*
G02*
X306000000Y-94000000I0J1000000D01*
G01*
X332000000Y-179000000D02*
G75*
G02*
X332000000Y-181000000I0J-1000000D01*
G01*
X336000000Y-181000000D02*
G75*
G02*
X336000000Y-179000000I0J1000000D01*
G01*
X361000000Y-179000000D02*
G75*
G02*
X361000000Y-181000000I0J-1000000D01*
G01*
X365000000Y-181000000D02*
G75*
G02*
X365000000Y-179000000I0J1000000D01*
G01*
X117000000Y-179000000D02*
G75*
G02*
X117000000Y-181000000I0J-1000000D01*
G01*
X121000000Y-181000000D02*
G75*
G02*
X121000000Y-179000000I0J1000000D01*
G01*
X88000000Y-179000000D02*
G75*
G02*
X88000000Y-181000000I0J-1000000D01*
G01*
X92000000Y-181000000D02*
G75*
G02*
X92000000Y-179000000I0J1000000D01*
G01*
X147000000Y-94000000D02*
G75*
G02*
X147000000Y-96000000I0J-1000000D01*
G01*
X151000000Y-96000000D02*
G75*
G02*
X151000000Y-94000000I0J1000000D01*
G01*
X224500000Y-94000000D02*
G75*
G02*
X224500000Y-96000000I0J-1000000D01*
G01*
X228500000Y-96000000D02*
G75*
G02*
X228500000Y-94000000I0J1000000D01*
G01*
X228500000Y-105000000D02*
G75*
G02*
X228500000Y-103000000I0J1000000D01*
G01*
X224500000Y-103000000D02*
G75*
G02*
X224500000Y-105000000I0J-1000000D01*
G01*
X239500000Y-179000000D02*
G75*
G02*
X239500000Y-181000000I0J-1000000D01*
G01*
X243500000Y-181000000D02*
G75*
G02*
X243500000Y-179000000I0J1000000D01*
G01*
X224500000Y-179000000D02*
G75*
G02*
X224500000Y-181000000I0J-1000000D01*
G01*
X228500000Y-181000000D02*
G75*
G02*
X228500000Y-179000000I0J1000000D01*
G01*
X209500000Y-179000000D02*
G75*
G02*
X209500000Y-181000000I0J-1000000D01*
G01*
X213500000Y-181000000D02*
G75*
G02*
X213500000Y-179000000I0J1000000D01*
G01*
X242000000Y-165828427D02*
G75*
G02*
X243414215Y-164414214I707107J707107D01*
G01*
X240585785Y-161585786D02*
G75*
G02*
X239171574Y-162999999I-707105J-707107D01*
G01*
X213828427Y-163000000D02*
G75*
G02*
X212414214Y-161585785I-707107J707107D01*
G01*
X209585786Y-164414214D02*
G75*
G02*
X211000000Y-165828427I707107J-707106D01*
G01*
X228500000Y-155000000D02*
G75*
G02*
X228500000Y-153000000I0J1000000D01*
G01*
X224500000Y-153000000D02*
G75*
G02*
X224500000Y-155000000I0J-1000000D01*
G01*
X220000000Y-142500000D02*
G75*
G02*
X222000000Y-142500000I1000000J0D01*
G01*
X222000000Y-138500000D02*
G75*
G02*
X220000000Y-138500000I-1000000J0D01*
G01*
X231000000Y-142500000D02*
G75*
G02*
X233000000Y-142500000I1000000J0D01*
G01*
X233000000Y-138500000D02*
G75*
G02*
X231000000Y-138500000I-1000000J0D01*
G01*
X220000000Y-127500000D02*
G75*
G02*
X222000000Y-127500000I1000000J0D01*
G01*
X222000000Y-123500000D02*
G75*
G02*
X220000000Y-123500000I-1000000J0D01*
G01*
X231000000Y-127500000D02*
G75*
G02*
X233000000Y-127500000I1000000J0D01*
G01*
X233000000Y-123500000D02*
G75*
G02*
X231000000Y-123500000I-1000000J0D01*
G01*
X231000000Y-112500000D02*
G75*
G02*
X233000000Y-112500000I1000000J0D01*
G01*
X233000000Y-108500000D02*
G75*
G02*
X231000000Y-108500000I-1000000J0D01*
G01*
X222000000Y-108500000D02*
G75*
G02*
X220000000Y-108500000I-1000000J0D01*
G01*
X220000000Y-112500000D02*
G75*
G02*
X222000000Y-112500000I1000000J0D01*
G01*
%TD*%
M02*
